<?xml version="1.0" encoding="UTF-8" standalone="no"?>
<!-- Created with Inkscape (http://www.inkscape.org/) -->

<svg
   xmlns:dc="http://purl.org/dc/elements/1.1/"
   xmlns:cc="http://creativecommons.org/ns#"
   xmlns:rdf="http://www.w3.org/1999/02/22-rdf-syntax-ns#"
   xmlns:svg="http://www.w3.org/2000/svg"
   xmlns="http://www.w3.org/2000/svg"
   xmlns:sodipodi="http://sodipodi.sourceforge.net/DTD/sodipodi-0.dtd"
   xmlns:inkscape="http://www.inkscape.org/namespaces/inkscape"
   width="210mm"
   height="297mm"
   viewBox="0 0 744.09448819 1052.3622047"
   id="svg2"
   version="1.1"
   inkscape:version="0.91 r13725"
   sodipodi:docname="dessin.svg">
  <defs
     id="defs4" />
  <sodipodi:namedview
     id="base"
     pagecolor="#ffffff"
     bordercolor="#666666"
     borderopacity="1.0"
     inkscape:pageopacity="0.0"
     inkscape:pageshadow="2"
     inkscape:zoom="0.7"
     inkscape:cx="51.06353"
     inkscape:cy="551.15713"
     inkscape:document-units="px"
     inkscape:current-layer="layer1"
     showgrid="false"
     inkscape:window-width="1855"
     inkscape:window-height="1056"
     inkscape:window-x="65"
     inkscape:window-y="24"
     inkscape:window-maximized="1" />
  <metadata
     id="metadata7">
    <rdf:RDF>
      <cc:Work
         rdf:about="">
        <dc:format>image/svg+xml</dc:format>
        <dc:type
           rdf:resource="http://purl.org/dc/dcmitype/StillImage" />
      </cc:Work>
    </rdf:RDF>
  </metadata>
  <g
     inkscape:label="Calque 1"
     inkscape:groupmode="layer"
     id="layer1">
    <rect
       style="fill:#c7a96b;fill-opacity:1;fill-rule:evenodd;stroke:#000000;stroke-width:2.12393117px;stroke-linecap:butt;stroke-linejoin:miter;stroke-opacity:1"
       id="rect3340"
       width="209.07912"
       height="44.472912"
       x="315.37726"
       y="-8.6866941" />
    <rect
       style="fill:#f3f3f3;fill-opacity:1;fill-rule:evenodd;stroke:#000000;stroke-width:1px;stroke-linecap:butt;stroke-linejoin:miter;stroke-opacity:1"
       id="rect3342"
       width="36.36549"
       height="95.964493"
       x="582.29242"
       y="-26.218191" />
    <path
       style="fill:#c7a96b;fill-opacity:1"
       d="m 62.781006,150.31634 0,-39.39595 7.57614,0 7.57615,0 0,39.39595 0,39.39594 -7.57615,0 -7.57614,0 0,-39.39594 z"
       id="path4157-0"
       inkscape:connector-curvature="0" />
    <path
       style="fill:#c7a96b;fill-opacity:1"
       d="m 26.352426,115.82904 0,-6.53881 25.77928,0 25.77926,0 0,6.53881 0,6.5388 -25.77926,0 -25.77928,0 0,-6.5388 z"
       id="path4157-1"
       inkscape:connector-curvature="0" />
    <rect
       style="fill:#ffffff;fill-opacity:1"
       id="rect4209"
       width="156.06857"
       height="10.732871"
       x="-6.7317591"
       y="188.03812" />
    <path
       style="fill:#c7a96b;fill-opacity:1"
       d="m 92.912826,146.24894 10.066964,-45.81696 10.2129,1.08564 10.21293,1.08565 -10.06696,45.81699 -10.06697,45.81697 -10.212914,-1.08563 -10.21291,-1.08565 10.06696,-45.81701 z"
       id="path4157-2"
       inkscape:connector-curvature="0" />
    <path
       style="fill:#c7a96b;fill-opacity:1"
       d="m 123.36618,152.44629 10.38022,45.74702 10.20524,-1.1555 10.20526,-1.15551 -10.38021,-45.74703 -10.38023,-45.74703 -10.20525,1.15549 -10.20524,1.15551 10.38021,45.74705 z"
       id="path4157-2-3"
       inkscape:connector-curvature="0" />
    <path
       style="fill:#c7a96b;fill-opacity:1"
       d="m 165.62552,150.78874 0,-42.237 7.57614,0 7.57615,0 0,42.237 0,42.23701 -7.57615,0 -7.57614,0 0,-42.23701 z"
       id="path4157-4"
       inkscape:connector-curvature="0" />
    <ellipse
       style="fill:#c7a96b;fill-opacity:1"
       id="path4381"
       cx="192.64711"
       cy="128.56538"
       rx="25.75889"
       ry="24.243662" />
    <rect
       style="fill:#c7a96b;fill-opacity:1"
       id="rect4385"
       width="21.544296"
       height="10.591291"
       x="171.93896"
       y="142.20244" />
    <path
       style="fill:#c7a96b;fill-opacity:1"
       d="m 194.7569,178.11418 -17.7096,-22.54074 5.95739,-4.68054 5.95738,-4.68055 17.70961,22.54074 17.70961,22.54074 -5.9574,4.68055 -5.95737,4.68054 -17.70962,-22.54074 z"
       id="path4157-4-9"
       inkscape:connector-curvature="0" />
    <ellipse
       style="fill:#c7a96b;fill-opacity:1"
       id="path4407"
       cx="264.26337"
       cy="149.19255"
       rx="38.035713"
       ry="38.839287" />
    <path
       style="fill:#c7a96b;fill-opacity:1"
       d="m 317.30215,150.8862 -10.98332,-55.213121 8.93763,-2.37031 8.9376,-2.3703 10.98333,55.213131 10.98333,55.21314 -8.93762,2.3703 -8.93762,2.3703 -10.98333,-55.21314 z"
       id="path4157-02"
       inkscape:connector-curvature="0" />
    <path
       style="fill:#c7a96b;fill-opacity:1"
       d="m 359.92613,158.2098 10.98332,-55.21312 -8.93763,-2.37031 -8.9376,-2.370301 -10.98333,55.213131 -10.98333,55.21314 8.93762,2.3703 8.93762,2.3703 10.98333,-55.21314 z"
       id="path4157-02-0"
       inkscape:connector-curvature="0" />
    <path
       style="fill:#c7a96b;fill-opacity:1"
       d="m 361.74886,156.1895 -10.98332,-55.21312 8.93763,-2.370311 8.9376,-2.3703 10.98333,55.213131 10.98333,55.21314 -8.93762,2.3703 -8.93762,2.3703 -10.98333,-55.21314 z"
       id="path4157-02-1"
       inkscape:connector-curvature="0" />
    <path
       style="fill:#c7a96b;fill-opacity:1"
       d="m 404.87793,153.66411 10.98332,-55.213121 -8.93763,-2.37031 -8.9376,-2.3703 -10.98333,55.213131 -10.98333,55.21314 8.93762,2.3703 8.93762,2.3703 10.98333,-55.21314 z"
       id="path4157-02-9"
       inkscape:connector-curvature="0" />
    <path
       style="fill:#c7a96b;fill-opacity:1"
       d="m 428.96218,145.08369 0,-42.93488 7.57614,0 7.57615,0 0,42.93488 0,42.93489 -7.57615,0 -7.57614,0 0,-42.93489 z"
       id="path4157-6"
       inkscape:connector-curvature="0" />
    <path
       style="fill:#c7a96b;fill-opacity:1"
       d="m 470.75219,147.92052 0,-51.717391 7.57614,0 7.57615,0 0,51.717391 0,51.71736 -7.57615,0 -7.57614,0 0,-51.71736 z"
       id="path4157-0-2"
       inkscape:connector-curvature="0" />
    <path
       style="fill:#c7a96b;fill-opacity:1"
       d="m 431.78034,148.26337 0,-6.53881 25.77928,0 25.77926,0 0,6.53881 0,6.5388 -25.77926,0 -25.77928,0 0,-6.5388 z"
       id="path4157-1-7"
       inkscape:connector-curvature="0" />
    <path
       style="fill:#c7a96b;fill-opacity:1"
       d="m 508.23756,142.67428 10.06696,-45.816961 10.2129,1.08564 10.21293,1.08565 -10.06696,45.816991 -10.06697,45.81697 -10.21291,-1.08563 -10.21291,-1.08565 10.06696,-45.81701 z"
       id="path4157-2-31"
       inkscape:connector-curvature="0" />
    <path
       style="fill:#c7a96b;fill-opacity:1"
       d="m 538.69091,148.87163 10.38022,45.74702 10.20524,-1.1555 10.20526,-1.15551 -10.38021,-45.74703 -10.38023,-45.74703 -10.20525,1.15549 -10.20524,1.15551 10.38021,45.74705 z"
       id="path4157-2-3-1"
       inkscape:connector-curvature="0" />
    <ellipse
       style="fill:#e6e7e7;fill-opacity:1"
       id="path4407-9"
       cx="264.5076"
       cy="149.63272"
       rx="23.497461"
       ry="23.125002" />
    <ellipse
       style="fill:#c7a96b;fill-opacity:1"
       id="path4407-0"
       cx="621.13263"
       cy="147.5968"
       rx="42.67857"
       ry="43.125" />
    <ellipse
       style="fill:#e6e7e7;fill-opacity:1"
       id="path4407-9-5"
       cx="623.21429"
       cy="146.64792"
       rx="28.14032"
       ry="27.410715" />
    <rect
       style="fill:#e6e7e7;fill-opacity:1"
       id="rect4555"
       width="19.520731"
       height="42.795444"
       x="331.43008"
       y="554.81073"
       transform="matrix(0.70603185,-0.70818008,0.70814182,0.70607023,0,0)" />
    <rect
       style="fill:#e6e7e7;fill-opacity:1"
       id="rect4555-7"
       width="19.225668"
       height="42.118073"
       x="-618.14935"
       y="-471.93085"
       transform="matrix(-0.61421014,-0.78914251,-0.61649186,0.78736128,0,0)" />
    <rect
       style="fill:#e6e7e7;fill-opacity:1"
       id="rect4555-7-7"
       width="29.179741"
       height="63.981243"
       x="-569.69031"
       y="-389.85965"
       transform="matrix(-0.72485072,-0.68890597,-0.72690012,0.6867432,0,0)" />
    <path
       style="fill:#ffffff;fill-opacity:1"
       d="m 648.38624,180.07179 -8.86125,-9.01644 -0.74505,0.52472 c -1.25537,0.88411 -4.18705,2.25014 -6.32058,2.9451 -10.32482,3.36314 -21.59828,0.70531 -29.12447,-6.86638 -3.56011,-3.58163 -5.8972,-7.60205 -7.17369,-12.34063 -0.59092,-2.1936 -0.66515,-2.93419 -0.66515,-6.63604 0,-3.69473 0.0749,-4.44461 0.66055,-6.61796 2.61025,-9.6858 10.20538,-17.16487 20.13948,-19.83172 2.25599,-0.60563 2.89779,-0.6652 7.16641,-0.6652 4.27519,0 4.90828,0.059 7.18158,0.66904 2.58472,0.69363 6.81919,2.58373 8.76193,3.91098 l 1.11767,0.76358 1.04869,-1.29932 c 2.7495,-3.40665 7.9756,-10.15831 7.98956,-10.32183 0.009,-0.10101 0.26969,-0.45012 0.58015,-0.7758 0.805,-0.84448 3.22166,-3.81263 6.26114,-7.68996 1.44269,-1.84038 2.69921,-3.34613 2.79228,-3.34613 0.0931,0 1.64248,1.89759 3.44312,4.21688 1.80065,2.31928 3.68093,4.68891 4.17839,5.26583 l 0.9045,1.04895 1.88327,-1.63063 c 1.03579,-0.89685 2.79563,-2.52413 3.91073,-3.61619 l 2.02746,-1.98555 5.06866,4.71554 c 6.9204,6.43827 15.95177,15.00012 16.03252,15.19899 0.0364,0.0897 -7.374,7.14827 -16.46763,15.68564 -22.08165,20.73096 -21.34607,20.03485 -21.46234,20.31063 -0.0562,0.13333 2.77356,3.03121 6.2884,6.43972 l 6.39061,6.19729 -6.75298,6.88166 c -3.71414,3.78492 -6.89691,6.88166 -7.07284,6.88166 -0.17593,0 -4.30743,-4.05739 -9.18112,-9.01643 z"
       id="path4630"
       inkscape:connector-curvature="0" />
    <rect
       style="fill:#ffffff;fill-opacity:1"
       id="rect4632"
       width="26.263966"
       height="24.496199"
       x="645.48749"
       y="144.74014" />
    <path
       style="fill:#ffffff;fill-opacity:1"
       d="m 595.3517,145.00508 c -0.0896,-3.54603 1.64311,-8.93366 4.11702,-12.801 5.90614,-9.23278 17.4295,-14.29376 28.26139,-12.41221 3.9484,0.68586 8.11786,2.22791 10.65535,3.94082 l 1.83679,1.23991 3.55982,-4.53733 c 4.43615,-5.65431 7.23089,-9.3478 7.23089,-9.55625 0,-0.0878 -2.04911,-0.1944 -4.55358,-0.23688 l -4.55357,-0.0772 4.2982,-0.11172 c 2.36401,-0.0614 4.87942,0.0135 5.5898,0.16651 l 1.2916,0.27823 -2.01837,2.52771 c -1.1101,1.39025 -3.90741,4.95614 -6.21624,7.92422 l -4.19788,5.39649 -2.94498,-1.56173 c -1.61974,-0.85896 -4.2307,-2.01004 -5.80213,-2.55796 -2.6527,-0.92493 -3.25325,-0.99608 -8.39285,-0.99434 -5.88487,0.002 -7.42825,0.28979 -11.71054,2.18363 -8.43239,3.7292 -15.04983,12.25892 -16.1555,20.82404 l -0.25459,1.97222 -0.0406,-1.60714 z"
       id="path4656"
       inkscape:connector-curvature="0" />
    <rect
       style="fill:#ffffff;fill-opacity:1"
       id="rect4658"
       width="67.85714"
       height="99.64286"
       x="656.42859"
       y="100.57649" />
    <path
       style="fill:#c7a96b;fill-opacity:1"
       d="m 666.70068,149.03329 0,-42.93488 7.57614,0 7.57615,0 0,42.93488 0,42.93489 -7.57615,0 -7.57614,0 0,-42.93489 z"
       id="path4157-6-0"
       inkscape:connector-curvature="0" />
    <path
       style="fill:#e6e7e7;fill-opacity:1"
       d="m 36.23417,155.09895 0,-32.5 13.214286,0 13.214286,0 0,32.5 0,32.5 -13.214286,0 -13.214286,0 0,-32.5 z"
       id="path4687"
       inkscape:connector-curvature="0" />
    <path
       style="fill:#e6e7e7;fill-opacity:1"
       d="m 78.377027,149.07064 0,-38.61454 11.071429,0 c 6.089286,0 11.060294,0.0803 11.046674,0.17857 -0.0136,0.0982 -3.813197,17.375 -8.44352,38.39285 l -8.418768,38.21429 -2.627907,0.22169 -2.627908,0.22169 0,-38.61455 z"
       id="path4689"
       inkscape:connector-curvature="0" />
    <path
       style="fill:#e6e7e7;fill-opacity:1"
       d="m 105.16202,186.7061 c 0.17137,-0.49108 2.89496,-12.78572 6.05241,-27.32143 3.15746,-14.53572 5.99309,-27.02707 6.30142,-27.75857 0.37723,-0.89498 2.37795,6.69802 6.11686,23.21428 3.05596,13.49936 5.98746,26.3925 6.51444,28.65143 l 0.95816,4.10714 -13.12744,0 c -10.19194,0 -13.05776,-0.19965 -12.81585,-0.89285 z"
       id="path4691"
       inkscape:connector-curvature="0" />
    <path
       style="fill:#e6e7e7;fill-opacity:1"
       d="m 152.18686,185.63467 c -0.27671,-1.08036 -4.24253,-18.4375 -8.81295,-38.57143 l -8.30985,-36.60714 15.22791,0 15.22791,0 0,38.57142 0,38.57143 -6.41496,0 c -6.39999,0 -6.41614,-0.004 -6.91806,-1.96428 z"
       id="path4693"
       inkscape:connector-curvature="0" />
    <path
       style="fill:#e6e7e7;fill-opacity:1"
       d="m 181.23417,174.58875 c 0,-11.00976 0.14947,-12.84938 0.97207,-11.96429 0.53463,0.57526 5.19403,6.42985 10.3542,13.01021 l 9.38213,11.96428 -10.3542,0 -10.3542,0 0,-13.0102 z"
       id="path4695"
       inkscape:connector-curvature="0" />
    <path
       style="fill:#e6e7e7;fill-opacity:1"
       d="m 208.73417,171.04678 c -7.07143,-9.05571 -12.95269,-16.86757 -13.06947,-17.35969 -0.13164,-0.55473 0.9087,-1.07402 2.7376,-1.36647 7.61072,-1.217 15.81692,-7.97498 18.58058,-15.30148 1.23934,-3.2855 1.47464,-5.15658 1.22958,-9.77733 -0.33154,-6.25124 -1.75161,-9.85078 -5.6281,-14.26585 l -2.21246,-2.51986 23.46685,0.0184 23.46685,0.0184 -4.64286,1.5887 c -12.15652,4.15974 -20.83432,12.96365 -24.66004,25.01843 -6.43677,20.2821 4.14287,41.913 23.99059,49.05064 l 3.88374,1.39667 -17.14286,-0.0179 -17.14286,-0.0179 -12.85714,-16.46492 z"
       id="path4697"
       inkscape:connector-curvature="0" />
    <path
       style="fill:#e6e7e7;fill-opacity:1"
       d="m 277.02458,185.90297 c 12.05485,-4.25548 20.87511,-14.19488 24.22713,-27.30117 1.66709,-6.51826 1.75892,-11.02971 0.359,-17.63632 -2.81229,-13.27193 -12.48559,-24.2897 -25.29602,-28.81187 l -4.72338,-1.66738 18.69936,-0.0151 18.69936,-0.0151 0.76442,3.75 c 2.08288,10.21804 14.33686,72.57342 14.33686,72.9543 0,0.2412 -11.65178,0.43177 -25.89285,0.42349 l -25.89286,-0.0151 4.71898,-1.66585 0,0 z"
       id="path4699"
       inkscape:connector-curvature="0" />
    <path
       style="fill:#e6e7e7;fill-opacity:1"
       d="m 333.85752,138.23124 c -3.0053,-15.02339 -5.3521,-27.42735 -5.2151,-27.56435 0.137,-0.13699 5.04692,-0.16011 10.91094,-0.0514 l 10.66185,0.19772 -5.44675,27.36663 -5.44675,27.36664 -5.46419,-27.31527 z"
       id="path4701"
       inkscape:connector-curvature="0" />
    <path
       style="fill:#e6e7e7;fill-opacity:1"
       d="m 377.71982,140.40444 c -2.89292,-14.52076 -5.41242,-27.19945 -5.59888,-28.17486 l -0.33902,-1.77348 11.1547,0 c 7.23382,0 11.15469,0.26066 11.15469,0.74156 0,0.85368 -10.76189,55.25843 -10.9724,55.46893 -0.0766,0.0766 -2.50616,-11.74139 -5.39909,-26.26215 z"
       id="path4703"
       inkscape:connector-curvature="0" />
    <path
       style="fill:#e6e7e7;fill-opacity:1"
       d="m 357.57351,171.20718 c 1.79194,-9.01547 3.35031,-16.29953 3.46305,-16.18679 0.17192,0.17192 6.62618,31.68752 6.62618,32.35509 0,0.12291 -3.00314,0.22347 -6.67365,0.22347 l -6.67365,0 3.25807,-16.39177 z"
       id="path4705"
       inkscape:connector-curvature="0" />
    <path
       style="fill:#e6e7e7;fill-opacity:1"
       d="m 398.54686,186.7061 c 0.17747,-0.49108 3.65349,-17.84822 7.72449,-38.57143 l 7.40181,-37.67857 7.35194,0 7.35193,0 0,38.57142 0,38.57143 -15.07642,0 c -11.75704,0 -15.00538,-0.19658 -14.75375,-0.89285 z"
       id="path4707"
       inkscape:connector-curvature="0" />
    <path
       style="fill:#e6e7e7;fill-opacity:1"
       d="m 444.25647,171.34895 0.19199,-16.25 13.03571,-0.19468 13.03571,-0.19469 0,16.44469 0,16.44468 -13.22769,0 -13.2277,0 0.19198,-16.25 z"
       id="path4709"
       inkscape:connector-curvature="0" />
    <path
       style="fill:#e6e7e7;fill-opacity:1"
       d="m 444.09131,125.81324 0,-15.35714 13.21429,0 13.21428,0 0,15.35714 0,15.35714 -13.21428,0 -13.21429,0 0,-15.35714 z"
       id="path4711"
       inkscape:connector-curvature="0" />
    <path
       style="fill:#e6e7e7;fill-opacity:1"
       d="m 486.23417,149.02752 0,-38.57142 14.36898,0 14.36899,0 -0.32047,1.60714 c -0.17626,0.88393 -3.9716,18.24107 -8.43409,38.57143 l -8.11361,36.96428 -5.9349,0 -5.9349,0 0,-38.57143 z"
       id="path4713"
       inkscape:connector-curvature="0" />
    <path
       style="fill:#e6e7e7;fill-opacity:1"
       d="m 519.95147,185.99181 c 1.15276,-5.93017 13.09013,-59.68067 13.22454,-59.54625 0.22409,0.22409 13.77245,59.79589 13.77245,60.55711 0,0.32796 -6.14462,0.59628 -13.6547,0.59628 l -13.6547,0 0.31241,-1.60714 z"
       id="path4715"
       inkscape:connector-curvature="0" />
    <path
       style="fill:#e6e7e7;fill-opacity:1"
       d="m 560.2692,150.27752 c -4.62888,-20.52678 -8.57705,-37.88392 -8.77372,-38.57142 -0.33542,-1.17254 1.11019,-1.25 23.32613,-1.25 l 23.6837,0 -3.50742,2.77246 c -16.84801,13.31757 -21.54969,36.96334 -11.09498,55.79896 3.0969,5.57951 10.5041,13.15953 15.90269,16.27371 l 3.92857,2.26621 -17.52442,0.0158 -17.52441,0.0157 -8.41614,-37.32143 z"
       id="path4717"
       inkscape:connector-curvature="0" />
    <path
       style="fill:#e6e7e7;fill-opacity:1"
       d="m 641.94846,185.4154 c 2.16071,-1.18673 4.65278,-2.8767 5.53792,-3.7555 l 1.60935,-1.59783 -4.60312,-4.56221 -4.60313,-4.56221 -4.50622,2.08065 c -4.07123,1.8798 -5.23024,2.08065 -12.00623,2.08065 -6.6422,0 -7.96714,-0.21895 -11.58433,-1.91432 -5.75996,-2.69969 -10.85296,-7.716 -13.53092,-13.32716 -4.06849,-8.52475 -3.57875,-19.67448 1.19731,-27.25852 2.41697,-3.83798 7.8752,-8.50009 12.35012,-10.54878 7.45015,-3.41079 18.56036,-2.84118 25.71579,1.31841 1.29924,0.75528 2.49091,1.37323 2.64815,1.37323 0.15724,0 2.12465,-2.30455 4.37203,-5.12122 l 4.08614,-5.12122 -2.38266,-1.98913 -2.38266,-1.98913 11.18409,-0.023 11.18408,-0.023 0,38.56194 0,38.56194 -14.10714,-0.0129 -14.10714,-0.0129 3.92857,-2.15767 z"
       id="path4719"
       inkscape:connector-curvature="0" />
    <path
       style="fill:#e6e7e7;fill-opacity:1"
       d="m 681.94846,123.82911 0,-13.37301 11.55308,0 11.55308,0 -1.43235,1.60714 c -0.7878,0.88393 -5.39426,6.26786 -10.23658,11.96428 -4.84232,5.69643 -9.39665,10.99108 -10.12073,11.76588 -1.28243,1.37227 -1.3165,1.06263 -1.3165,-11.96429 z"
       id="path4721"
       inkscape:connector-curvature="0" />
    <path
       style="fill:#e6e7e7;fill-opacity:1"
       d="m 681.94846,175.64279 0,-11.95617 11.78571,11.76948 c 6.48214,6.47321 11.78572,11.85348 11.78572,11.95616 0,0.10268 -5.30358,0.18669 -11.78572,0.18669 l -11.78571,0 0,-11.95616 z"
       id="path4723"
       inkscape:connector-curvature="0" />
    <path
       style="fill:#e6e7e7;fill-opacity:1"
       d="m 636.25237,187.96723 c 0.0102,-0.01 0.32999,-0.14302 0.71057,-0.2964 3.59715,-1.44978 7.132,-3.48571 10.17199,-5.85869 0.27875,-0.21758 0.51514,-0.38727 0.52533,-0.37709 0.0102,0.0102 -0.13753,0.1675 -0.32824,0.34959 -0.7853,0.74977 -2.85929,2.17561 -4.75148,3.26659 -0.23733,0.13683 -1.35229,0.75462 -2.47768,1.37285 -1.12539,0.61824 -2.05454,1.13191 -2.06477,1.14148 -0.0102,0.01 6.33296,0.0174 14.09598,0.0174 l 14.11458,0 0,-25.58036 0,-25.58036 0.22322,0 0.22321,0 0,9.59193 0,9.59193 -0.17857,0.20287 c -0.0982,0.11158 -0.17857,0.22153 -0.17857,0.24435 0,0.0228 0.0804,0.10606 0.17857,0.18498 l 0.17857,0.14351 0,15.80147 0,15.80146 -15.23065,0 c -8.37686,0 -15.22229,-0.008 -15.21206,-0.0175 z"
       id="path4725"
       inkscape:connector-curvature="0" />
    <path
       style="fill:#e6e7e7;fill-opacity:1"
       d="m 621.7998,175.82412 c -2.40224,-0.11366 -4.56448,-0.50147 -6.98962,-1.25362 -1.51048,-0.46847 -1.55577,-0.63003 -0.0547,-0.19503 2.02598,0.58711 2.81704,0.64544 8.74892,0.64515 7.27362,-3.7e-4 7.66785,-0.0707 12.35725,-2.20577 1.24065,-0.56486 2.28646,-0.99628 2.32402,-0.95871 0.0376,0.0376 -0.80705,0.49262 -1.87692,1.01125 -4.73918,2.29736 -9.20604,3.20765 -14.50898,2.95673 z"
       id="path4727"
       inkscape:connector-curvature="0" />
    <path
       style="fill:#e6e7e7;fill-opacity:1"
       d="m 636.45753,187.91183 c 0.0289,-0.0284 0.73447,-0.34334 1.56784,-0.69984 3.59126,-1.53631 8.80698,-4.81994 10.57273,-6.65623 l 0.4712,-0.49002 -4.59189,-4.59059 -4.59189,-4.5906 -0.55126,0.30041 c -0.3032,0.16522 -0.58603,0.34787 -0.62852,0.40589 -0.0425,0.058 -0.11377,0.0996 -0.15841,0.0924 -0.0446,-0.007 -0.22835,0.0239 -0.40825,0.069 -0.20982,0.0527 -0.27313,0.11546 -0.17657,0.17514 0.0913,0.0564 -0.31415,0.32177 -1.02972,0.67402 -1.87641,0.92367 -3.51624,1.62956 -3.51624,1.51362 0,-0.0397 -0.0852,-0.001 -0.1894,0.085 -0.10417,0.0865 -0.1894,0.11487 -0.1894,0.0631 0,-0.0517 -0.0743,-0.0324 -0.16508,0.0429 -0.26617,0.22091 -3.4615,1.06012 -4.63315,1.21684 -3.73332,0.49936 -6.46185,0.49774 -9.65958,-0.006 -1.56017,-0.24564 -4.78214,-1.1389 -4.68353,-1.29846 0.0309,-0.05 -0.56081,-0.36336 -1.31488,-0.69641 -3.13499,-1.38461 -5.86782,-3.2266 -8.403,-5.66377 -4.83902,-4.65195 -7.63606,-10.2584 -8.44364,-16.92459 -0.15662,-1.2928 -0.17459,-1.3519 -0.20132,-0.66193 l -0.0294,0.75761 -0.10941,-0.56821 c -0.17323,-0.89959 -0.27047,-5.40274 -0.1377,-6.37659 l 0.12051,-0.88388 0.0349,1.45209 c 0.0192,0.79865 0.0556,1.28163 0.0808,1.07329 0.0253,-0.20834 0.13374,-1.11748 0.24109,-2.02031 0.38347,-3.22487 1.1753,-6.04596 2.44548,-8.71256 1.27713,-2.68121 2.43191,-4.24324 4.95054,-6.69641 1.90887,-1.85925 3.03924,-2.78355 5.1283,-4.19337 4.38113,-2.95664 8.90553,-4.24543 14.8669,-4.2349 5.11803,0.009 9.67183,1.04945 13.64206,3.11678 0.99213,0.51662 1.83248,0.91069 1.86745,0.87572 0.035,-0.035 0.36589,0.14001 0.73538,0.38883 0.36949,0.24883 0.73608,0.45242 0.81465,0.45242 0.0786,0 0.63353,-0.61903 1.23324,-1.37562 0.59972,-0.75659 1.17904,-1.40963 1.28737,-1.4512 0.10833,-0.0416 0.16545,-0.12659 0.12692,-0.18893 -0.0385,-0.0623 0.0733,-0.2073 0.24855,-0.32212 0.17524,-0.11482 0.28504,-0.26308 0.24401,-0.32948 -0.041,-0.0664 -0.0134,-0.12072 0.0613,-0.12072 0.0748,0 1.27137,-1.42601 2.6591,-3.16891 2.22329,-2.7923 2.79101,-3.57753 2.42136,-3.34907 -0.056,0.0346 -0.26475,-0.13251 -0.4639,-0.37136 -0.19915,-0.23885 -0.43744,-0.43427 -0.52954,-0.43427 -0.0921,0 -0.16745,-0.0491 -0.16745,-0.1091 0,-0.06 -0.73963,-0.72197 -1.64362,-1.47102 -0.90399,-0.74905 -1.62621,-1.37933 -1.60492,-1.40061 0.0213,-0.0213 5.02249,-0.077 11.11379,-0.12382 l 11.07511,-0.0851 0,13.02219 c 0,12.93801 0.002,13.02219 0.25254,13.02219 0.2503,0 0.25254,0.0842 0.25254,9.50522 0,8.50773 -0.0212,9.53548 -0.20198,9.79358 -0.18513,0.26431 -0.18513,0.30699 0,0.51155 0.18285,0.20205 0.20198,1.71393 0.20198,15.96531 l 0,15.74212 -15.17334,0 c -8.34533,0 -15.14965,-0.0232 -15.12072,-0.0516 z"
       id="path4729"
       inkscape:connector-curvature="0" />
    <path
       style="fill:#e6e7e7;fill-opacity:1"
       d="m 637.14149,187.61001 c 1.801,-0.78508 5.0469,-2.48035 6.5286,-3.40975 1.83032,-1.14808 4.23298,-2.92576 4.92801,-3.64614 l 0.4712,-0.48838 -4.59908,-4.59779 -4.59909,-4.59779 -0.64716,0.4023 c -0.35594,0.22127 -0.72918,0.4023 -0.82941,0.4023 -0.10024,0 -0.28113,0.11849 -0.40199,0.26331 -0.41099,0.4925 -3.52758,1.91457 -5.76963,2.63264 -1.47062,0.471 -3.5554,0.9312 -5.24611,1.15803 -1.7624,0.23646 -5.67811,0.2041 -7.5067,-0.062 -1.71574,-0.24971 -4.72423,-0.98902 -5.34248,-1.31287 -0.22766,-0.11926 -1.33618,-0.67994 -2.46337,-1.24597 -3.40563,-1.71015 -5.82002,-3.47799 -8.37381,-6.13138 -4.14142,-4.30295 -6.58457,-9.32067 -7.49255,-15.38814 -0.17386,-1.16181 -0.2424,-1.42134 -0.26423,-1.00052 l -0.0295,0.56821 -0.10758,-0.56821 c -0.17929,-0.94697 -0.28227,-4.90568 -0.16259,-6.25032 l 0.11238,-1.26269 0.0631,1.26269 0.0631,1.26269 0.21995,-1.74803 c 0.44631,-3.54692 1.22435,-6.25707 2.61563,-9.11111 1.10834,-2.27359 2.08109,-3.63009 4.09214,-5.70648 3.40075,-3.51125 7.17524,-6.15357 10.77754,-7.54478 3.28108,-1.26715 7.81008,-1.86836 11.93343,-1.58412 4.44875,0.30667 7.566,1.09913 11.1679,2.83909 1.05365,0.50898 1.9442,0.89695 1.97901,0.86214 0.0348,-0.0348 0.40746,0.17044 0.82812,0.4561 0.96544,0.65562 1.12531,0.71476 1.31257,0.48558 0.0835,-0.10216 0.82625,-1.03263 1.65062,-2.06771 0.82437,-1.03507 1.67669,-2.03668 1.89404,-2.2258 0.21735,-0.18911 0.36436,-0.34537 0.32669,-0.34724 -0.0377,-0.002 0.17519,-0.2733 0.47301,-0.60317 0.29782,-0.32988 1.27087,-1.53072 2.16233,-2.66854 l 1.62084,-2.06876 -0.43638,-0.39349 c -0.24002,-0.21641 -0.574,-0.52133 -0.7422,-0.67759 -0.16819,-0.15626 -0.36004,-0.28411 -0.42634,-0.28411 -0.0663,0 -0.12053,-0.052 -0.12053,-0.11561 0,-0.0636 -0.63651,-0.646 -1.41448,-1.29426 l -1.41448,-1.17864 4.03457,-0.0776 c 2.21901,-0.0427 7.23075,-0.0853 11.1372,-0.0947 l 7.10263,-0.0171 0,12.61113 c 0,6.93612 0.0355,12.78869 0.0789,13.00571 0.0434,0.21703 0.15705,0.39459 0.25254,0.39459 0.14577,0 0.17362,1.52437 0.17362,9.50522 0,8.50773 -0.0212,9.53548 -0.20198,9.79358 -0.18513,0.26431 -0.18513,0.30699 0,0.51155 0.18285,0.20205 0.20198,1.71393 0.20198,15.96531 l 0,15.74212 -15.18386,-0.0116 -15.18385,-0.0116 0.75761,-0.33025 0,0 z"
       id="path4731"
       inkscape:connector-curvature="0" />
    <path
       style="fill:#e6e7e7;fill-opacity:1"
       d="m 636.82582,187.74127 c 4.05315,-1.88978 5.73594,-2.79323 7.89181,-4.23692 1.48334,-0.99332 3.00556,-2.14706 3.76356,-2.85253 l 0.60683,-0.56478 -4.57222,-4.57351 c -3.26371,-3.26463 -4.62988,-4.55231 -4.77371,-4.49946 -0.11082,0.0407 -0.41344,0.20603 -0.67249,0.36736 -0.25905,0.16133 -0.54855,0.29333 -0.64334,0.29333 -0.0948,0 -0.28059,0.12263 -0.41288,0.2725 -0.38827,0.43985 -3.43619,1.83968 -5.44993,2.50299 -5.36173,1.76614 -10.78441,1.9557 -16.28826,0.56938 -1.43305,-0.36096 -2.02474,-0.59433 -3.86072,-1.52273 -3.87222,-1.95808 -5.76691,-3.24908 -8.18144,-5.57467 -4.71538,-4.54169 -7.26124,-9.41694 -8.43163,-16.14634 -0.13176,-0.7576 -0.25195,-1.207 -0.26709,-0.99866 -0.0258,0.35505 -0.0346,0.34713 -0.14052,-0.12627 -0.16916,-0.75605 -0.27151,-5.94853 -0.13441,-6.81853 l 0.11939,-0.75761 0.0154,1.1259 c 0.008,0.61924 0.0385,1.10222 0.0669,1.07329 0.0283,-0.0289 0.11818,-0.62083 0.19971,-1.31531 0.3865,-3.29217 1.24189,-6.34397 2.51989,-8.99023 1.35187,-2.79923 2.39616,-4.19299 5.14047,-6.86074 3.36328,-3.26946 6.99495,-5.64309 10.50132,-6.86357 3.21522,-1.11915 7.63765,-1.64081 11.44978,-1.3506 4.31591,0.32856 7.63395,1.17491 10.96245,2.79626 0.6853,0.33382 1.32548,0.57645 1.4226,0.53918 0.0971,-0.0373 0.20793,0.0139 0.24622,0.1137 0.0383,0.0998 0.13822,0.18176 0.22204,0.18214 0.0838,3.8e-4 0.56934,0.26836 1.07893,0.59552 0.78789,0.50584 0.95659,0.5703 1.1275,0.43074 0.11053,-0.0903 0.99226,-1.15847 1.9594,-2.37381 0.96714,-1.21534 1.89479,-2.3141 2.06145,-2.44169 0.16665,-0.12758 0.27071,-0.28424 0.23122,-0.34813 -0.0395,-0.0639 0.0178,-0.15053 0.12729,-0.19255 0.15296,-0.0587 2.06558,-2.38852 3.65273,-4.44952 0.10025,-0.13018 0.01,-0.28202 -0.37531,-0.63134 -1.11281,-1.00888 -1.5075,-1.33162 -1.59802,-1.30673 -0.0521,0.0143 -0.0947,-0.0269 -0.0947,-0.0916 0,-0.0647 -0.52375,-0.56192 -1.16389,-1.10485 l -1.16388,-0.98716 2.52127,-0.0655 c 1.38671,-0.036 6.39681,-0.0794 11.13357,-0.0963 l 8.61229,-0.0308 0.0371,12.8913 c 0.0349,12.10686 0.0506,12.90113 0.25812,13.05284 0.20703,0.15135 0.22097,0.75635 0.22097,9.5925 0,8.06121 -0.027,9.48323 -0.18608,9.7908 -0.16393,0.317 -0.16393,0.37822 0,0.51427 0.16211,0.13453 0.18608,2.18573 0.18608,15.9226 l 0,15.76817 -15.18386,-0.008 c -14.14212,-0.008 -15.15353,-0.0222 -14.74191,-0.21413 z"
       id="path4733"
       inkscape:connector-curvature="0" />
    <path
       style="fill:#e6e7e7;fill-opacity:1"
       d="m 636.45753,187.91118 c 0.0289,-0.0288 0.80945,-0.39629 1.73447,-0.81672 2.30167,-1.04613 4.42564,-2.22462 6.52563,-3.62077 1.79425,-1.19288 3.90669,-2.84207 4.15507,-3.24389 0.11648,-0.18842 -0.24155,-0.6 -2.45128,-2.81795 -1.42322,-1.42851 -3.4881,-3.45761 -4.58862,-4.50912 l -2.00095,-1.91182 -0.71384,0.37349 c -0.3926,0.20542 -0.73289,0.41647 -0.75618,0.46899 -0.0233,0.0525 -0.0943,0.0634 -0.15784,0.0241 -0.0635,-0.0392 -0.11548,-0.0165 -0.11548,0.0506 0,0.13477 -1.99773,1.18656 -3.283,1.72847 -3.72307,1.56977 -7.17591,2.25488 -11.36421,2.25488 -2.95911,0 -4.51587,-0.18995 -7.19448,-0.87787 -1.45341,-0.37326 -2.0523,-0.61369 -4.10374,-1.6475 -3.93795,-1.98451 -6.01995,-3.47867 -8.71966,-6.25773 -4.26315,-4.38844 -6.62355,-9.13794 -7.63792,-15.36872 -0.0874,-0.53681 -0.19264,-0.86531 -0.24835,-0.77517 -0.16307,0.26386 -0.24606,-0.66894 -0.32558,-3.65967 -0.0437,-1.64155 -0.024,-3.13426 0.0465,-3.53553 l 0.12201,-0.69448 0.0306,1.01015 0.0306,1.01015 0.17628,-1.13642 c 0.62256,-4.01363 1.3253,-6.44833 2.64201,-9.15351 1.24388,-2.55555 2.0691,-3.66769 4.59481,-6.1924 5.35113,-5.349 9.93245,-7.74935 16.42009,-8.60319 1.76844,-0.23274 6.16588,-0.19686 8.08122,0.066 3.20405,0.43963 5.65734,1.13434 8.39689,2.37778 0.76393,0.34674 1.50628,0.6476 1.64968,0.66859 0.14339,0.021 0.82099,0.38244 1.50577,0.80324 0.68478,0.4208 1.29697,0.733 1.36042,0.69379 0.0634,-0.0392 1.13964,-1.35752 2.39154,-2.92955 1.25189,-1.57203 2.39747,-2.95443 2.54574,-3.072 0.14826,-0.11757 0.26957,-0.26742 0.26957,-0.33301 0,-0.0656 0.12651,-0.22509 0.28115,-0.35445 0.15463,-0.12936 0.81623,-0.91706 1.47022,-1.75043 0.88916,-1.13305 1.16206,-1.56617 1.08198,-1.71718 -0.0589,-0.11108 -0.52012,-0.53723 -1.02494,-0.94702 -0.50481,-0.40979 -1.03298,-0.8639 -1.17372,-1.00915 -0.14074,-0.14524 -0.67757,-0.62822 -1.19296,-1.07328 l -0.93707,-0.80921 2.2629,-0.0789 c 1.24459,-0.0434 6.25458,-0.086 11.1333,-0.0947 l 8.8704,-0.0158 0,9.26024 c 0,11.4922 0.1,16.45432 0.33627,16.69061 0.23374,0.23375 0.25106,18.80854 0.018,19.32003 -0.11689,0.25654 -0.11689,0.38527 0,0.57244 0.11478,0.1838 0.1508,3.99614 0.1508,15.96368 l 0,15.72221 -15.17334,0 c -8.34533,0 -15.14965,-0.0235 -15.12072,-0.0523 z"
       id="path4735"
       inkscape:connector-curvature="0" />
    <path
       style="fill:#e6e7e7;fill-opacity:1"
       d="m 636.95209,187.67651 c 4.04613,-1.93184 5.60936,-2.77843 7.70241,-4.17136 2.53971,-1.69018 4.16657,-3.02416 4.16755,-3.41726 5.1e-4,-0.18616 -1.30949,-1.56301 -4.26158,-4.47922 -2.34424,-2.31575 -4.39047,-4.29706 -4.54718,-4.40291 -0.26898,-0.18169 -0.3503,-0.15359 -1.4521,0.50183 -3.44918,2.05179 -7.05692,3.35554 -10.95301,3.95814 -2.00033,0.30939 -6.32091,0.31198 -8.29116,0.005 -1.75777,-0.27391 -4.11111,-0.86269 -5.13561,-1.28489 -0.42818,-0.17644 -0.83533,-0.33302 -0.90477,-0.34794 -0.0695,-0.0149 -0.15468,-0.0591 -0.18941,-0.0982 -0.0347,-0.0391 -0.80181,-0.45685 -1.70463,-0.92834 -3.26661,-1.70593 -5.56551,-3.41855 -8.08358,-6.02207 -3.94761,-4.08156 -6.24482,-8.54202 -7.33743,-14.24696 -0.18609,-0.9716 -0.38005,-1.74077 -0.43104,-1.70926 -0.051,0.0315 -0.12693,-0.12679 -0.16876,-0.35179 -0.14495,-0.77963 -0.23995,-5.59085 -0.13024,-6.59627 l 0.11022,-1.01015 0.0658,0.88388 0.0658,0.88389 0.16984,-1.13643 c 0.74973,-5.01656 2.27355,-9.10811 4.53432,-12.17492 0.89752,-1.21751 3.50803,-3.89161 5.1441,-5.26941 1.42445,-1.19959 3.70009,-2.77803 5.11389,-3.54712 6.94309,-3.77698 17.51875,-3.89476 25.33814,-0.28219 0.59455,0.27468 1.13132,0.46832 1.19282,0.43032 0.0615,-0.038 0.11182,-0.006 0.11182,0.0721 0,0.0777 0.048,0.11154 0.10657,0.0753 0.0586,-0.0362 0.71797,0.30135 1.46523,0.75016 0.74726,0.44882 1.43259,0.81603 1.52295,0.81603 0.0904,0 1.40044,-1.54837 2.91129,-3.44083 1.51085,-1.89246 2.9089,-3.57323 3.10678,-3.73504 0.19788,-0.16181 0.32747,-0.34648 0.28798,-0.41037 -0.0395,-0.0639 -0.0145,-0.11617 0.0555,-0.11617 0.1686,0 1.65769,-1.91447 1.58304,-2.03526 -0.0319,-0.0516 -2.5e-4,-0.12956 0.0703,-0.17318 0.2452,-0.15154 0.12174,-0.29785 -1.06525,-1.26238 -0.65648,-0.53344 -1.43777,-1.20852 -1.7362,-1.50019 -0.29844,-0.29166 -0.73442,-0.68695 -0.96885,-0.87842 -0.23442,-0.19148 -0.38638,-0.38798 -0.33769,-0.43668 0.0487,-0.0487 5.05609,-0.10958 11.12754,-0.1353 l 11.03899,-0.0468 0.0115,8.56895 c 0.0151,11.28428 0.12891,17.15674 0.33655,17.36437 0.2231,0.2231 0.22912,18.87686 0.006,19.366 -0.11688,0.25654 -0.11688,0.38527 0,0.57244 0.11478,0.1838 0.1508,3.99614 0.1508,15.96368 l 0,15.72221 -15.18386,-0.008 -15.18385,-0.008 0.56821,-0.2713 0,-1e-5 z"
       id="path4737"
       inkscape:connector-curvature="0" />
    <path
       style="fill:#e6e7e7;fill-opacity:1"
       d="m 637.33089,187.47417 c 3.98706,-1.79548 7.47586,-3.87379 10.25137,-6.10683 1.1624,-0.9352 1.30749,-1.12431 1.12224,-1.46267 -0.0638,-0.1165 -2.0728,-2.1592 -4.46449,-4.53933 -3.50138,-3.48447 -4.39499,-4.31073 -4.58709,-4.24135 -0.13122,0.0474 -0.6395,0.32663 -1.1295,0.62055 -7.2262,4.33443 -16.04641,5.3838 -23.81382,2.83321 -0.84817,-0.27851 -1.6312,-0.58474 -1.74008,-0.68051 -0.10888,-0.0958 -0.62412,-0.38615 -1.14498,-0.64528 -3.05091,-1.51785 -5.38636,-3.17029 -7.74678,-5.4812 -4.60157,-4.50505 -6.98074,-8.97528 -8.23793,-15.4783 -0.12083,-0.62503 -0.27069,-1.17042 -0.33302,-1.21197 -0.28456,-0.18973 -0.48202,-5.90879 -0.25508,-7.38827 l 0.0947,-0.6174 0.0631,0.75761 0.0631,0.75762 0.22917,-1.38896 c 0.86746,-5.25756 2.57507,-9.44214 5.06276,-12.40652 1.11787,-1.33207 3.42555,-3.62124 4.80959,-4.771 1.26171,-1.04814 4.08856,-2.95067 5.26296,-3.54208 6.92521,-3.48749 16.68147,-3.60607 24.39135,-0.29646 0.61462,0.26384 1.20636,0.44561 1.31497,0.40393 0.14085,-0.0541 0.16784,-0.0278 0.0941,0.0915 -0.0663,0.10726 -0.0544,0.13696 0.0333,0.0828 0.0751,-0.0464 0.82802,0.31799 1.67306,0.80983 0.84505,0.49184 1.6164,0.92494 1.7141,0.96243 0.21243,0.0815 0.0647,0.25021 3.22672,-3.68402 1.39543,-1.7362 2.65802,-3.26257 2.80576,-3.39193 0.14774,-0.12936 0.26862,-0.28887 0.26862,-0.35445 0,-0.0656 0.14206,-0.22838 0.31568,-0.36177 0.17362,-0.13338 0.26539,-0.24378 0.20394,-0.24532 -0.0614,-0.002 0.041,-0.12293 0.22762,-0.26974 0.18664,-0.14682 0.30831,-0.29798 0.27037,-0.33592 -0.0379,-0.0379 0.0453,-0.14899 0.18486,-0.24678 0.13962,-0.0978 0.22482,-0.22478 0.18933,-0.2822 -0.0355,-0.0574 0.024,-0.13836 0.13216,-0.17987 0.10818,-0.0415 0.1653,-0.12626 0.12693,-0.18833 -0.0384,-0.0621 0.0149,-0.18307 0.11827,-0.26889 0.10341,-0.0858 0.18801,-0.19655 0.18801,-0.24607 0,-0.0495 -0.51533,-0.51134 -1.14517,-1.02626 -0.62985,-0.51493 -1.35462,-1.1351 -1.61059,-1.37817 -0.25598,-0.24307 -0.71167,-0.65944 -1.01263,-0.92526 -0.30097,-0.26583 -0.50903,-0.52153 -0.46237,-0.56821 0.0467,-0.0467 5.04257,-0.1043 11.10201,-0.12802 l 11.01717,-0.0431 0.0942,11.91242 c 0.0552,6.97347 0.1495,12.35741 0.22755,12.98571 0.10146,0.81682 0.21817,18.08148 0.13912,20.58186 -0.005,0.17362 0.012,7.46092 0.039,16.19401 l 0.049,15.87833 -15.24796,-0.003 -15.24796,-0.003 1.07328,-0.48333 z"
       id="path4739"
       inkscape:connector-curvature="0" />
    <path
       style="fill:#e6e7e7;fill-opacity:1"
       d="m 666.60828,136.3726 c -0.0331,-0.0619 -0.0831,-0.91134 -0.12955,-2.20022 -0.0999,-2.77336 -0.22066,-13.94615 -0.22092,-20.43191 l -1.3e-4,-3.32245 0.22097,0 0.22097,0 0,13.00571 c 0,8.33325 -0.0109,13.00571 -0.0305,13.00571 -0.0168,0 -0.0441,-0.0256 -0.0609,-0.0568 z"
       id="path4741"
       inkscape:connector-curvature="0" />
    <path
       style="fill:#e6e7e7;fill-opacity:1"
       d="m 681.85191,124.15695 0,-13.73893 11.7588,0 c 6.46735,0 11.75881,0.007 11.75881,0.0148 0,0.016 -23.31767,27.25513 -23.44241,27.38484 l -0.0752,0.0782 0,-13.73894 z m 0.93439,12.08763 c 0.17453,-0.12782 0.6352,-0.61322 1.27756,-1.34615 1.56853,-1.7897 4.78631,-5.54104 9.34169,-10.89071 7.67467,-9.01281 10.56003,-12.36951 11.57977,-13.47133 l 0.0803,-0.0868 -11.55952,0 -11.55953,0 5.9e-4,9.69905 c 7.7e-4,12.58264 0.0314,14.45143 0.25532,15.5667 0.11926,0.59403 0.2873,0.74637 0.58378,0.52925 z"
       id="path4743"
       inkscape:connector-curvature="0" />
    <rect
       style="fill:#e6e7e7;fill-opacity:1"
       id="rect4745"
       width="45.892857"
       height="89.821426"
       x="-21.428572"
       y="107.54077" />
    <path
       style="fill:#c7a96b;fill-opacity:1"
       d="m 20.990993,148.57261 0,-39.20654 7.576143,0 7.57615,0 0,39.20654 0,39.20655 -7.57615,0 -7.576143,0 0,-39.20655 z"
       id="path4157"
       inkscape:connector-curvature="0" />
    <rect
       style="fill:#e6e7e7;fill-opacity:1"
       id="rect4745-7"
       width="71.25"
       height="89.821426"
       x="687.76788"
       y="103.52292" />
    <path
       style="fill:#c7a96b;fill-opacity:1"
       d="m 695.61442,121.85712 29.28859,-34.200803 6.18907,5.039465 6.18908,5.039476 -29.2886,34.200812 -29.28859,34.2008 -6.18908,-5.03947 -6.18907,-5.03947 29.2886,-34.20081 z"
       id="path4157-6-6"
       inkscape:connector-curvature="0" />
    <path
       style="fill:#c7a96b;fill-opacity:1"
       d="m 707.84694,188.79209 -30.76381,-29.94982 5.28484,-5.42848 5.28484,-5.42848 30.76381,29.94983 30.76382,29.94982 -5.28484,5.42848 -5.28484,5.42848 -30.76382,-29.94983 z"
       id="path4157-6-4"
       inkscape:connector-curvature="0" />
    <rect
       style="fill:#241c1c;fill-opacity:1"
       id="rect4325"
       width="805.35712"
       height="35.17857"
       x="-37.857143"
       y="75.219345" />
    <rect
       style="fill:#241c1c;fill-opacity:1"
       id="rect4325-5"
       width="807.90277"
       height="31.607141"
       x="-40.067429"
       y="187.98721" />
    <rect
       style="fill:#241c1c;fill-opacity:1"
       id="rect4762"
       width="29.285713"
       height="136.42485"
       x="-40"
       y="75.223061" />
    <rect
       style="fill:#241c1c;fill-opacity:1"
       id="rect4764"
       width="34.285713"
       height="145"
       x="743.57141"
       y="74.505066" />
    <path
       style="fill:#c7a96b;fill-opacity:1"
       d="m 56.029004,631.34312 0,-39.39595 7.57614,0 7.57615,0 0,39.39595 0,39.39593 -7.57615,0 -7.57614,0 0,-39.39593 z"
       id="path4157-0-9"
       inkscape:connector-curvature="0" />
    <path
       style="fill:#c7a96b;fill-opacity:1"
       d="m 19.600429,596.85582 0,-6.53881 25.77928,0 25.779255,0 0,6.53881 0,6.5388 -25.779255,0 -25.77928,0 0,-6.5388 z"
       id="path4157-1-8"
       inkscape:connector-curvature="0" />
    <rect
       style="fill:#ffffff;fill-opacity:1"
       id="rect4209-8"
       width="156.06857"
       height="10.732871"
       x="-13.483756"
       y="669.06488" />
    <path
       style="fill:#c7a96b;fill-opacity:1"
       d="m 86.160824,627.27572 10.066972,-45.81696 10.212904,1.08564 10.21293,1.08565 -10.06696,45.81699 -10.066974,45.81696 -10.212922,-1.08563 -10.21291,-1.08565 10.06696,-45.817 z"
       id="path4157-2-5"
       inkscape:connector-curvature="0" />
    <path
       style="fill:#c7a96b;fill-opacity:1"
       d="m 116.61419,633.47307 10.38022,45.74701 10.20524,-1.1555 10.20526,-1.15551 -10.38021,-45.74702 -10.38023,-45.74703 -10.20525,1.15549 -10.20524,1.15551 10.38021,45.74705 z"
       id="path4157-2-3-8"
       inkscape:connector-curvature="0" />
    <path
       style="fill:#c7a96b;fill-opacity:1"
       d="m 158.87353,631.81552 0,-42.237 7.57614,0 7.57615,0 0,42.237 0,42.237 -7.57615,0 -7.57614,0 0,-42.237 z"
       id="path4157-4-4"
       inkscape:connector-curvature="0" />
    <ellipse
       style="fill:#c7a96b;fill-opacity:1"
       id="path4381-3"
       cx="185.89511"
       cy="609.59216"
       rx="25.75889"
       ry="24.243662" />
    <rect
       style="fill:#c7a96b;fill-opacity:1"
       id="rect4385-7"
       width="21.544296"
       height="10.591291"
       x="165.18697"
       y="623.22925" />
    <path
       style="fill:#c7a96b;fill-opacity:1"
       d="m 188.00491,659.14095 -17.7096,-22.54073 5.95739,-4.68054 5.95738,-4.68055 17.70961,22.54074 17.70961,22.54073 -5.9574,4.68055 -5.95737,4.68054 -17.70962,-22.54074 z"
       id="path4157-4-9-1"
       inkscape:connector-curvature="0" />
    <ellipse
       style="fill:#c7a96b;fill-opacity:1"
       id="path4407-3"
       cx="257.51138"
       cy="630.21936"
       rx="38.035713"
       ry="38.839287" />
    <path
       style="fill:#c7a96b;fill-opacity:1"
       d="m 310.55016,631.91298 -10.98332,-55.21313 8.93763,-2.37031 8.9376,-2.3703 10.98333,55.21314 10.98333,55.21313 -8.93762,2.3703 -8.93762,2.3703 -10.98333,-55.21313 z"
       id="path4157-02-8"
       inkscape:connector-curvature="0" />
    <path
       style="fill:#c7a96b;fill-opacity:1"
       d="m 353.17414,639.23658 10.98332,-55.21312 -8.93763,-2.37031 -8.9376,-2.37031 -10.98333,55.21314 -10.98333,55.21313 8.93762,2.3703 8.93762,2.3703 10.98333,-55.21313 z"
       id="path4157-02-0-0"
       inkscape:connector-curvature="0" />
    <path
       style="fill:#c7a96b;fill-opacity:1"
       d="m 354.99687,637.21628 -10.98332,-55.21312 8.93763,-2.37032 8.9376,-2.3703 10.98333,55.21314 10.98333,55.21313 -8.93762,2.3703 -8.93762,2.3703 -10.98333,-55.21313 z"
       id="path4157-02-1-9"
       inkscape:connector-curvature="0" />
    <path
       style="fill:#c7a96b;fill-opacity:1"
       d="m 398.12594,634.69089 10.98332,-55.21313 -8.93763,-2.37031 -8.9376,-2.3703 -10.98333,55.21314 -10.98333,55.21313 8.93762,2.3703 8.93762,2.3703 10.98333,-55.21313 z"
       id="path4157-02-9-7"
       inkscape:connector-curvature="0" />
    <path
       style="fill:#c7a96b;fill-opacity:1"
       d="m 422.21019,626.11047 0,-42.93488 7.57614,0 7.57615,0 0,42.93488 0,42.93488 -7.57615,0 -7.57614,0 0,-42.93488 z"
       id="path4157-6-9"
       inkscape:connector-curvature="0" />
    <path
       style="fill:#c7a96b;fill-opacity:1"
       d="m 464.0002,628.9473 0,-51.7174 7.57614,0 7.57615,0 0,51.7174 0,51.71735 -7.57615,0 -7.57614,0 0,-51.71735 z"
       id="path4157-0-2-9"
       inkscape:connector-curvature="0" />
    <path
       style="fill:#c7a96b;fill-opacity:1"
       d="m 425.02835,629.29015 0,-6.53881 25.77928,0 25.77926,0 0,6.53881 0,6.5388 -25.77926,0 -25.77928,0 0,-6.5388 z"
       id="path4157-1-7-3"
       inkscape:connector-curvature="0" />
    <path
       style="fill:#c7a96b;fill-opacity:1"
       d="m 501.48557,623.70106 10.06696,-45.81697 10.2129,1.08564 10.21293,1.08565 -10.06696,45.817 -10.06697,45.81696 -10.21291,-1.08563 -10.21291,-1.08565 10.06696,-45.817 z"
       id="path4157-2-31-2"
       inkscape:connector-curvature="0" />
    <path
       style="fill:#c7a96b;fill-opacity:1"
       d="m 531.93892,629.89841 10.38022,45.74701 10.20524,-1.1555 10.20526,-1.15551 -10.38021,-45.74702 -10.38023,-45.74703 -10.20525,1.15549 -10.20524,1.15551 10.38021,45.74705 z"
       id="path4157-2-3-1-4"
       inkscape:connector-curvature="0" />
    <ellipse
       style="fill:#e6e7e7;fill-opacity:1"
       id="path4407-9-3"
       cx="257.75558"
       cy="630.65948"
       rx="23.497461"
       ry="23.125002" />
    <ellipse
       style="fill:#c7a96b;fill-opacity:1"
       id="path4407-0-7"
       cx="614.38068"
       cy="628.6236"
       rx="42.67857"
       ry="43.125" />
    <ellipse
       style="fill:#e6e7e7;fill-opacity:1"
       id="path4407-9-5-1"
       cx="616.46234"
       cy="627.67468"
       rx="28.14032"
       ry="27.410715" />
    <rect
       style="fill:#e6e7e7;fill-opacity:1"
       id="rect4555-2"
       width="19.520731"
       height="42.795444"
       x="-13.972472"
       y="889.64935"
       transform="matrix(0.70603185,-0.70818008,0.70814182,0.70607023,0,0)" />
    <rect
       style="fill:#e6e7e7;fill-opacity:1"
       id="rect4555-7-2"
       width="19.225668"
       height="42.118073"
       x="-918.35681"
       y="-161.8822"
       transform="matrix(-0.61421014,-0.78914251,-0.61649186,0.78736128,0,0)" />
    <rect
       style="fill:#e6e7e7;fill-opacity:1"
       id="rect4555-7-7-0"
       width="29.179741"
       height="63.981243"
       x="-915.2121"
       y="-36.023251"
       transform="matrix(-0.72485072,-0.68890597,-0.72690012,0.6867432,0,0)" />
    <path
       style="fill:#ffffff;fill-opacity:1"
       d="m 641.63425,661.09856 -8.86125,-9.01643 -0.74505,0.52472 c -1.25537,0.88411 -4.18705,2.25014 -6.32058,2.94509 -10.32482,3.36314 -21.59828,0.70531 -29.12447,-6.86637 -3.56011,-3.58163 -5.8972,-7.60205 -7.17369,-12.34063 -0.59092,-2.1936 -0.66515,-2.93419 -0.66515,-6.63604 0,-3.69473 0.0749,-4.44461 0.66055,-6.61796 2.61025,-9.6858 10.20538,-17.16487 20.13948,-19.83172 2.25599,-0.60563 2.89779,-0.6652 7.16641,-0.6652 4.27519,0 4.90828,0.059 7.18158,0.66904 2.58472,0.69363 6.81919,2.58373 8.76193,3.91098 l 1.11767,0.76358 1.04869,-1.29932 c 2.7495,-3.40665 7.9756,-10.15831 7.98956,-10.32183 0.009,-0.10101 0.26969,-0.45012 0.58015,-0.7758 0.805,-0.84448 3.22166,-3.81263 6.26114,-7.68996 1.44269,-1.84038 2.69921,-3.34613 2.79228,-3.34613 0.0931,0 1.64248,1.89759 3.44312,4.21688 1.80065,2.31928 3.68093,4.68891 4.17839,5.26583 l 0.9045,1.04895 1.88327,-1.63063 c 1.03579,-0.89685 2.79563,-2.52413 3.91073,-3.61619 l 2.02746,-1.98555 5.06866,4.71554 c 6.9204,6.43827 15.95177,15.00012 16.03252,15.19899 0.0364,0.0897 -7.374,7.14827 -16.46763,15.68564 -22.08165,20.73096 -21.34607,20.03485 -21.46234,20.31063 -0.0562,0.13333 2.77356,3.03121 6.2884,6.43972 l 6.39061,6.19728 -6.75298,6.88166 c -3.71414,3.78492 -6.89691,6.88166 -7.07284,6.88166 -0.17593,0 -4.30743,-4.05739 -9.18112,-9.01643 z"
       id="path4630-2"
       inkscape:connector-curvature="0" />
    <rect
       style="fill:#ffffff;fill-opacity:1"
       id="rect4632-1"
       width="26.263966"
       height="24.496199"
       x="638.73553"
       y="625.76691" />
    <path
       style="fill:#ffffff;fill-opacity:1"
       d="m 588.59971,626.03186 c -0.0896,-3.54603 1.64311,-8.93366 4.11702,-12.801 5.90614,-9.23278 17.4295,-14.29376 28.26139,-12.41221 3.9484,0.68586 8.11786,2.22791 10.65535,3.94082 l 1.83679,1.23991 3.55982,-4.53733 c 4.43615,-5.65431 7.23089,-9.3478 7.23089,-9.55625 0,-0.0878 -2.04911,-0.1944 -4.55358,-0.23688 l -4.55357,-0.0772 4.2982,-0.11172 c 2.36401,-0.0614 4.87942,0.0135 5.5898,0.16651 l 1.2916,0.27823 -2.01837,2.52771 c -1.1101,1.39025 -3.90741,4.95614 -6.21624,7.92422 l -4.19788,5.39649 -2.94498,-1.56173 c -1.61974,-0.85896 -4.2307,-2.01004 -5.80213,-2.55796 -2.6527,-0.92493 -3.25325,-0.99608 -8.39285,-0.99434 -5.88487,0.002 -7.42825,0.28979 -11.71054,2.18363 -8.43239,3.7292 -15.04983,12.25892 -16.1555,20.82404 l -0.25459,1.97222 -0.0406,-1.60714 z"
       id="path4656-7"
       inkscape:connector-curvature="0" />
    <rect
       style="fill:#ffffff;fill-opacity:1"
       id="rect4658-5"
       width="67.85714"
       height="99.64286"
       x="649.67664"
       y="581.60327" />
    <path
       style="fill:#c7a96b;fill-opacity:1"
       d="m 659.94869,630.06007 0,-42.93488 7.57614,0 7.57615,0 0,42.93488 0,42.93488 -7.57615,0 -7.57614,0 0,-42.93488 z"
       id="path4157-6-0-1"
       inkscape:connector-curvature="0" />
    <path
       style="fill:#e6e7e7;fill-opacity:1"
       d="m 29.482173,636.12573 0,-32.5 13.214286,0 13.214285,0 0,32.5 0,32.49999 -13.214285,0 -13.214286,0 0,-32.49999 z"
       id="path4687-7"
       inkscape:connector-curvature="0" />
    <path
       style="fill:#e6e7e7;fill-opacity:1"
       d="m 71.625034,630.09742 0,-38.61454 11.07142,0 c 6.08929,0 11.0603,0.0803 11.04668,0.17857 -0.0136,0.0982 -3.8132,17.375 -8.44352,38.39285 l -8.41877,38.21428 -2.62791,0.22169 -2.6279,0.22169 0,-38.61454 z"
       id="path4689-4"
       inkscape:connector-curvature="0" />
    <path
       style="fill:#e6e7e7;fill-opacity:1"
       d="m 98.410026,667.73287 c 0.17137,-0.49108 2.894964,-12.78571 6.052414,-27.32142 3.15746,-14.53572 5.99309,-27.02707 6.30142,-27.75857 0.37723,-0.89498 2.37795,6.69802 6.11686,23.21428 3.05596,13.49936 5.98746,26.39249 6.51444,28.65142 l 0.95816,4.10714 -13.12744,0 c -10.19194,0 -13.057764,-0.19965 -12.815854,-0.89285 z"
       id="path4691-1"
       inkscape:connector-curvature="0" />
    <path
       style="fill:#e6e7e7;fill-opacity:1"
       d="m 145.43487,666.66144 c -0.27671,-1.08036 -4.24253,-18.43749 -8.81295,-38.57142 l -8.30985,-36.60714 15.22791,0 15.22791,0 0,38.57142 0,38.57142 -6.41496,0 c -6.39999,0 -6.41614,-0.004 -6.91806,-1.96428 z"
       id="path4693-7"
       inkscape:connector-curvature="0" />
    <path
       style="fill:#e6e7e7;fill-opacity:1"
       d="m 174.48218,655.61552 c 0,-11.00975 0.14947,-12.84937 0.97207,-11.96428 0.53463,0.57526 5.19403,6.42985 10.3542,13.0102 l 9.38213,11.96428 -10.3542,0 -10.3542,0 0,-13.0102 z"
       id="path4695-1"
       inkscape:connector-curvature="0" />
    <path
       style="fill:#e6e7e7;fill-opacity:1"
       d="m 201.98218,652.07356 c -7.07143,-9.05571 -12.95269,-16.86757 -13.06947,-17.35969 -0.13164,-0.55473 0.9087,-1.07402 2.7376,-1.36647 7.61072,-1.217 15.81692,-7.97498 18.58058,-15.30148 1.23934,-3.2855 1.47464,-5.15658 1.22958,-9.77733 -0.33154,-6.25124 -1.75161,-9.85078 -5.6281,-14.26585 l -2.21246,-2.51986 23.46685,0.0184 23.46685,0.0184 -4.64286,1.5887 c -12.15652,4.15974 -20.83432,12.96365 -24.66004,25.01843 -6.43677,20.2821 4.14287,41.91299 23.99059,49.05063 l 3.88374,1.39667 -17.14286,-0.0179 -17.14286,-0.0179 -12.85714,-16.46491 z"
       id="path4697-1"
       inkscape:connector-curvature="0" />
    <path
       style="fill:#e6e7e7;fill-opacity:1"
       d="m 270.27259,666.92974 c 12.05485,-4.25548 20.87511,-14.19487 24.22713,-27.30116 1.66709,-6.51826 1.75892,-11.02971 0.359,-17.63632 -2.81229,-13.27193 -12.48559,-24.2897 -25.29602,-28.81187 l -4.72338,-1.66738 18.69936,-0.0151 18.69936,-0.0151 0.76442,3.75 c 2.08288,10.21804 14.33686,72.57341 14.33686,72.95429 0,0.2412 -11.65178,0.43177 -25.89285,0.42349 l -25.89286,-0.0151 4.71898,-1.66585 0,0 z"
       id="path4699-1"
       inkscape:connector-curvature="0" />
    <path
       style="fill:#e6e7e7;fill-opacity:1"
       d="m 327.10553,619.25802 c -3.0053,-15.02339 -5.3521,-27.42735 -5.2151,-27.56435 0.137,-0.13699 5.04692,-0.16011 10.91094,-0.0514 l 10.66185,0.19772 -5.44675,27.36663 -5.44675,27.36664 -5.46419,-27.31527 z"
       id="path4701-7"
       inkscape:connector-curvature="0" />
    <path
       style="fill:#e6e7e7;fill-opacity:1"
       d="m 370.96783,621.43122 c -2.89292,-14.52076 -5.41242,-27.19945 -5.59888,-28.17486 l -0.33902,-1.77348 11.1547,0 c 7.23382,0 11.15469,0.26066 11.15469,0.74156 0,0.85368 -10.76189,55.25843 -10.9724,55.46893 -0.0766,0.0766 -2.50616,-11.74139 -5.39909,-26.26215 z"
       id="path4703-0"
       inkscape:connector-curvature="0" />
    <path
       style="fill:#e6e7e7;fill-opacity:1"
       d="m 350.82152,652.23396 c 1.79194,-9.01547 3.35031,-16.29953 3.46305,-16.18679 0.17192,0.17192 6.62618,31.68751 6.62618,32.35508 0,0.12291 -3.00314,0.22347 -6.67365,0.22347 l -6.67365,0 3.25807,-16.39176 z"
       id="path4705-4"
       inkscape:connector-curvature="0" />
    <path
       style="fill:#e6e7e7;fill-opacity:1"
       d="m 391.79487,667.73287 c 0.17747,-0.49108 3.65349,-17.84821 7.72449,-38.57142 l 7.40181,-37.67857 7.35194,0 7.35193,0 0,38.57142 0,38.57142 -15.07642,0 c -11.75704,0 -15.00538,-0.19658 -14.75375,-0.89285 z"
       id="path4707-0"
       inkscape:connector-curvature="0" />
    <path
       style="fill:#e6e7e7;fill-opacity:1"
       d="m 437.50448,652.37573 0.19199,-16.25 13.03571,-0.19468 13.03571,-0.19469 0,16.44469 0,16.44467 -13.22769,0 -13.2277,0 0.19198,-16.24999 z"
       id="path4709-8"
       inkscape:connector-curvature="0" />
    <path
       style="fill:#e6e7e7;fill-opacity:1"
       d="m 437.33932,606.84002 0,-15.35714 13.21429,0 13.21428,0 0,15.35714 0,15.35714 -13.21428,0 -13.21429,0 0,-15.35714 z"
       id="path4711-5"
       inkscape:connector-curvature="0" />
    <path
       style="fill:#e6e7e7;fill-opacity:1"
       d="m 479.48218,630.0543 0,-38.57142 14.36898,0 14.36899,0 -0.32047,1.60714 c -0.17626,0.88393 -3.9716,18.24107 -8.43409,38.57143 l -8.11361,36.96427 -5.9349,0 -5.9349,0 0,-38.57142 z"
       id="path4713-1"
       inkscape:connector-curvature="0" />
    <path
       style="fill:#e6e7e7;fill-opacity:1"
       d="m 513.19948,667.01858 c 1.15276,-5.93017 13.09013,-59.68066 13.22454,-59.54624 0.22409,0.22409 13.77245,59.79588 13.77245,60.5571 0,0.32796 -6.14462,0.59628 -13.6547,0.59628 l -13.6547,0 0.31241,-1.60714 z"
       id="path4715-6"
       inkscape:connector-curvature="0" />
    <path
       style="fill:#e6e7e7;fill-opacity:1"
       d="m 553.51721,631.3043 c -4.62888,-20.52678 -8.57705,-37.88392 -8.77372,-38.57142 -0.33542,-1.17254 1.11019,-1.25 23.32613,-1.25 l 23.6837,0 -3.50742,2.77246 c -16.84801,13.31757 -21.54969,36.96334 -11.09498,55.79896 3.0969,5.5795 10.5041,13.15952 15.90269,16.2737 l 3.92857,2.26621 -17.52442,0.0158 -17.52441,0.0157 -8.41614,-37.32142 z"
       id="path4717-6"
       inkscape:connector-curvature="0" />
    <path
       style="fill:#e6e7e7;fill-opacity:1"
       d="m 635.19647,666.44217 c 2.16071,-1.18673 4.65278,-2.8767 5.53792,-3.7555 l 1.60935,-1.59783 -4.60312,-4.56221 -4.60313,-4.5622 -4.50622,2.08065 c -4.07123,1.87979 -5.23024,2.08064 -12.00623,2.08064 -6.6422,0 -7.96714,-0.21895 -11.58433,-1.91431 -5.75996,-2.69969 -10.85296,-7.716 -13.53092,-13.32716 -4.06849,-8.52475 -3.57875,-19.67448 1.19731,-27.25852 2.41697,-3.83798 7.8752,-8.50009 12.35012,-10.54878 7.45015,-3.41079 18.56036,-2.84118 25.71579,1.31841 1.29924,0.75528 2.49091,1.37323 2.64815,1.37323 0.15724,0 2.12465,-2.30455 4.37203,-5.12122 l 4.08614,-5.12122 -2.38266,-1.98913 -2.38266,-1.98913 11.18409,-0.023 11.18408,-0.023 0,38.56194 0,38.56193 -14.10714,-0.0129 -14.10714,-0.0129 3.92857,-2.15767 z"
       id="path4719-2"
       inkscape:connector-curvature="0" />
    <path
       style="fill:#e6e7e7;fill-opacity:1"
       d="m 675.19647,604.85589 0,-13.37301 11.55308,0 11.55308,0 -1.43235,1.60714 c -0.7878,0.88393 -5.39426,6.26786 -10.23658,11.96428 -4.84232,5.69643 -9.39665,10.99108 -10.12073,11.76588 -1.28243,1.37227 -1.3165,1.06263 -1.3165,-11.96429 z"
       id="path4721-1"
       inkscape:connector-curvature="0" />
    <path
       style="fill:#e6e7e7;fill-opacity:1"
       d="m 675.19647,656.66956 0,-11.95616 11.78571,11.76947 c 6.48214,6.47321 11.78572,11.85348 11.78572,11.95616 0,0.10268 -5.30358,0.18669 -11.78572,0.18669 l -11.78571,0 0,-11.95616 z"
       id="path4723-9"
       inkscape:connector-curvature="0" />
    <path
       style="fill:#e6e7e7;fill-opacity:1"
       d="m 629.50038,668.994 c 0.0102,-0.01 0.32999,-0.14302 0.71057,-0.2964 3.59715,-1.44978 7.132,-3.48571 10.17199,-5.85869 0.27875,-0.21758 0.51514,-0.38727 0.52533,-0.37709 0.0102,0.0102 -0.13753,0.1675 -0.32824,0.34959 -0.7853,0.74977 -2.85929,2.17561 -4.75148,3.26659 -0.23733,0.13683 -1.35229,0.75462 -2.47768,1.37285 -1.12539,0.61824 -2.05454,1.13191 -2.06477,1.14148 -0.0102,0.01 6.33296,0.0174 14.09598,0.0174 l 14.11458,0 0,-25.58035 0,-25.58036 0.22322,0 0.22321,0 0,9.59193 0,9.59193 -0.17857,0.20287 c -0.0982,0.11158 -0.17857,0.22153 -0.17857,0.24435 0,0.0228 0.0804,0.10606 0.17857,0.18498 l 0.17857,0.14351 0,15.80147 0,15.80145 -15.23065,0 c -8.37686,0 -15.22229,-0.008 -15.21206,-0.0175 z"
       id="path4725-6"
       inkscape:connector-curvature="0" />
    <path
       style="fill:#e6e7e7;fill-opacity:1"
       d="m 615.04781,656.85089 c -2.40224,-0.11366 -4.56448,-0.50147 -6.98962,-1.25362 -1.51048,-0.46846 -1.55577,-0.63002 -0.0547,-0.19502 2.02598,0.5871 2.81704,0.64543 8.74892,0.64514 7.27362,-3.7e-4 7.66785,-0.0707 12.35725,-2.20576 1.24065,-0.56486 2.28646,-0.99628 2.32402,-0.95871 0.0376,0.0376 -0.80705,0.49262 -1.87692,1.01125 -4.73918,2.29735 -9.20604,3.20764 -14.50898,2.95672 z"
       id="path4727-4"
       inkscape:connector-curvature="0" />
    <path
       style="fill:#e6e7e7;fill-opacity:1"
       d="m 629.70554,668.9386 c 0.0289,-0.0284 0.73447,-0.34334 1.56784,-0.69984 3.59126,-1.53631 8.80698,-4.81994 10.57273,-6.65623 l 0.4712,-0.49002 -4.59189,-4.59059 -4.59189,-4.59059 -0.55126,0.30041 c -0.3032,0.16522 -0.58603,0.34787 -0.62852,0.40589 -0.0425,0.058 -0.11377,0.0996 -0.15841,0.0924 -0.0446,-0.007 -0.22835,0.0239 -0.40825,0.069 -0.20982,0.0527 -0.27313,0.11546 -0.17657,0.17514 0.0913,0.0564 -0.31415,0.32177 -1.02972,0.67402 -1.87641,0.92367 -3.51624,1.62956 -3.51624,1.51362 0,-0.0397 -0.0852,-10e-4 -0.1894,0.085 -0.10417,0.0865 -0.1894,0.11487 -0.1894,0.0631 0,-0.0517 -0.0743,-0.0324 -0.16508,0.0429 -0.26617,0.2209 -3.4615,1.06011 -4.63315,1.21683 -3.73332,0.49936 -6.46185,0.49774 -9.65958,-0.006 -1.56017,-0.24564 -4.78214,-1.13889 -4.68353,-1.29845 0.0309,-0.05 -0.56081,-0.36336 -1.31488,-0.69641 -3.13499,-1.38461 -5.86782,-3.2266 -8.403,-5.66377 -4.83902,-4.65195 -7.63606,-10.2584 -8.44364,-16.92459 -0.15662,-1.2928 -0.17459,-1.3519 -0.20132,-0.66193 l -0.0294,0.75761 -0.10941,-0.56821 c -0.17323,-0.89959 -0.27047,-5.40274 -0.1377,-6.37659 l 0.12051,-0.88388 0.0349,1.45209 c 0.0192,0.79865 0.0556,1.28163 0.0808,1.07329 0.0253,-0.20834 0.13374,-1.11748 0.24109,-2.02031 0.38347,-3.22487 1.1753,-6.04596 2.44548,-8.71256 1.27713,-2.68121 2.43191,-4.24324 4.95054,-6.69641 1.90887,-1.85925 3.03924,-2.78355 5.1283,-4.19337 4.38113,-2.95664 8.90553,-4.24543 14.8669,-4.2349 5.11803,0.009 9.67183,1.04945 13.64206,3.11678 0.99213,0.51662 1.83248,0.91069 1.86745,0.87572 0.035,-0.035 0.36589,0.14001 0.73538,0.38883 0.36949,0.24883 0.73608,0.45242 0.81465,0.45242 0.0786,0 0.63353,-0.61903 1.23324,-1.37562 0.59972,-0.75659 1.17904,-1.40963 1.28737,-1.4512 0.10833,-0.0416 0.16545,-0.12659 0.12692,-0.18893 -0.0385,-0.0623 0.0733,-0.2073 0.24855,-0.32212 0.17524,-0.11482 0.28504,-0.26308 0.24401,-0.32948 -0.041,-0.0664 -0.0134,-0.12072 0.0613,-0.12072 0.0748,0 1.27137,-1.42601 2.6591,-3.16891 2.22329,-2.7923 2.79101,-3.57753 2.42136,-3.34907 -0.056,0.0346 -0.26475,-0.13251 -0.4639,-0.37136 -0.19915,-0.23885 -0.43744,-0.43427 -0.52954,-0.43427 -0.0921,0 -0.16745,-0.0491 -0.16745,-0.1091 0,-0.06 -0.73963,-0.72197 -1.64362,-1.47102 -0.90399,-0.74905 -1.62621,-1.37933 -1.60492,-1.40061 0.0213,-0.0213 5.02249,-0.077 11.11379,-0.12382 l 11.07511,-0.0851 0,13.02219 c 0,12.93801 0.002,13.02219 0.25254,13.02219 0.2503,0 0.25254,0.0842 0.25254,9.50522 0,8.50773 -0.0212,9.53548 -0.20198,9.79358 -0.18513,0.26431 -0.18513,0.30699 0,0.51155 0.18285,0.20205 0.20198,1.71393 0.20198,15.96531 l 0,15.74211 -15.17334,0 c -8.34533,0 -15.14965,-0.0232 -15.12072,-0.0516 z"
       id="path4729-8"
       inkscape:connector-curvature="0" />
    <path
       style="fill:#e6e7e7;fill-opacity:1"
       d="m 630.3895,668.63678 c 1.801,-0.78508 5.0469,-2.48035 6.5286,-3.40975 1.83032,-1.14808 4.23298,-2.92576 4.92801,-3.64614 l 0.4712,-0.48838 -4.59908,-4.59779 -4.59909,-4.59778 -0.64716,0.4023 c -0.35594,0.22127 -0.72918,0.4023 -0.82941,0.4023 -0.10024,0 -0.28113,0.11849 -0.40199,0.26331 -0.41099,0.4925 -3.52758,1.91457 -5.76963,2.63263 -1.47062,0.471 -3.5554,0.9312 -5.24611,1.15803 -1.7624,0.23646 -5.67811,0.2041 -7.5067,-0.062 -1.71574,-0.24971 -4.72423,-0.98902 -5.34248,-1.31286 -0.22766,-0.11926 -1.33618,-0.67994 -2.46337,-1.24597 -3.40563,-1.71015 -5.82002,-3.47799 -8.37381,-6.13138 -4.14142,-4.30295 -6.58457,-9.32067 -7.49255,-15.38814 -0.17386,-1.16181 -0.2424,-1.42134 -0.26423,-1.00052 l -0.0295,0.56821 -0.10758,-0.56821 c -0.17929,-0.94697 -0.28227,-4.90568 -0.16259,-6.25032 l 0.11238,-1.26269 0.0631,1.26269 0.0631,1.26269 0.21995,-1.74803 c 0.44631,-3.54692 1.22435,-6.25707 2.61563,-9.11111 1.10834,-2.27359 2.08109,-3.63009 4.09214,-5.70648 3.40075,-3.51125 7.17524,-6.15357 10.77754,-7.54478 3.28108,-1.26715 7.81008,-1.86836 11.93343,-1.58412 4.44875,0.30667 7.566,1.09913 11.1679,2.83909 1.05365,0.50898 1.9442,0.89695 1.97901,0.86214 0.0348,-0.0348 0.40746,0.17044 0.82812,0.4561 0.96544,0.65562 1.12531,0.71476 1.31257,0.48558 0.0835,-0.10216 0.82625,-1.03263 1.65062,-2.06771 0.82437,-1.03507 1.67669,-2.03668 1.89404,-2.2258 0.21735,-0.18911 0.36436,-0.34537 0.32669,-0.34724 -0.0377,-0.002 0.17519,-0.2733 0.47301,-0.60317 0.29782,-0.32988 1.27087,-1.53072 2.16233,-2.66854 l 1.62084,-2.06876 -0.43638,-0.39349 c -0.24002,-0.21641 -0.574,-0.52133 -0.7422,-0.67759 -0.16819,-0.15626 -0.36004,-0.28411 -0.42634,-0.28411 -0.0663,0 -0.12053,-0.052 -0.12053,-0.11561 0,-0.0636 -0.63651,-0.646 -1.41448,-1.29426 l -1.41448,-1.17864 4.03457,-0.0776 c 2.21901,-0.0427 7.23075,-0.0853 11.1372,-0.0947 l 7.10263,-0.0171 0,12.61113 c 0,6.93612 0.0355,12.78869 0.0789,13.00571 0.0434,0.21703 0.15705,0.39459 0.25254,0.39459 0.14577,0 0.17362,1.52437 0.17362,9.50522 0,8.50773 -0.0212,9.53548 -0.20198,9.79358 -0.18513,0.26431 -0.18513,0.30699 0,0.51155 0.18285,0.20205 0.20198,1.71393 0.20198,15.96531 l 0,15.74211 -15.18386,-0.0116 -15.18385,-0.0116 0.75761,-0.33025 0,0 z"
       id="path4731-0"
       inkscape:connector-curvature="0" />
    <path
       style="fill:#e6e7e7;fill-opacity:1"
       d="m 630.07383,668.76804 c 4.05315,-1.88978 5.73594,-2.79323 7.89181,-4.23692 1.48334,-0.99332 3.00556,-2.14706 3.76356,-2.85253 l 0.60683,-0.56478 -4.57222,-4.57351 c -3.26371,-3.26462 -4.62988,-4.5523 -4.77371,-4.49945 -0.11082,0.0407 -0.41344,0.20603 -0.67249,0.36736 -0.25905,0.16133 -0.54855,0.29333 -0.64334,0.29333 -0.0948,0 -0.28059,0.12263 -0.41288,0.2725 -0.38827,0.43985 -3.43619,1.83968 -5.44993,2.50299 -5.36173,1.76613 -10.78441,1.95569 -16.28826,0.56937 -1.43305,-0.36096 -2.02474,-0.59432 -3.86072,-1.52272 -3.87222,-1.95808 -5.76691,-3.24908 -8.18144,-5.57467 -4.71538,-4.54169 -7.26124,-9.41694 -8.43163,-16.14634 -0.13176,-0.7576 -0.25195,-1.207 -0.26709,-0.99866 -0.0258,0.35505 -0.0346,0.34713 -0.14052,-0.12627 -0.16916,-0.75605 -0.27151,-5.94853 -0.13441,-6.81853 l 0.11939,-0.75761 0.0154,1.1259 c 0.008,0.61924 0.0385,1.10222 0.0669,1.07329 0.0283,-0.0289 0.11818,-0.62083 0.19971,-1.31531 0.3865,-3.29217 1.24189,-6.34397 2.51989,-8.99023 1.35187,-2.79923 2.39616,-4.19299 5.14047,-6.86074 3.36328,-3.26946 6.99495,-5.64309 10.50132,-6.86357 3.21522,-1.11915 7.63765,-1.64081 11.44978,-1.3506 4.31591,0.32856 7.63395,1.17491 10.96245,2.79626 0.6853,0.33382 1.32548,0.57645 1.4226,0.53918 0.0971,-0.0373 0.20793,0.0139 0.24622,0.1137 0.0383,0.0998 0.13822,0.18176 0.22204,0.18214 0.0838,3.8e-4 0.56934,0.26836 1.07893,0.59552 0.78789,0.50584 0.95659,0.5703 1.1275,0.43074 0.11053,-0.0903 0.99226,-1.15847 1.9594,-2.37381 0.96714,-1.21534 1.89479,-2.3141 2.06145,-2.44169 0.16665,-0.12758 0.27071,-0.28424 0.23122,-0.34813 -0.0395,-0.0639 0.0178,-0.15053 0.12729,-0.19255 0.15296,-0.0587 2.06558,-2.38852 3.65273,-4.44952 0.10025,-0.13018 0.01,-0.28202 -0.37531,-0.63134 -1.11281,-1.00888 -1.5075,-1.33162 -1.59802,-1.30673 -0.0521,0.0143 -0.0947,-0.0269 -0.0947,-0.0916 0,-0.0647 -0.52375,-0.56192 -1.16389,-1.10485 l -1.16388,-0.98716 2.52127,-0.0655 c 1.38671,-0.036 6.39681,-0.0794 11.13357,-0.0963 l 8.61229,-0.0308 0.0371,12.8913 c 0.0349,12.10686 0.0506,12.90113 0.25812,13.05284 0.20703,0.15135 0.22097,0.75635 0.22097,9.5925 0,8.06121 -0.027,9.48323 -0.18608,9.7908 -0.16393,0.317 -0.16393,0.37822 0,0.51427 0.16211,0.13453 0.18608,2.18573 0.18608,15.9226 l 0,15.76816 -15.18386,-0.008 c -14.14212,-0.008 -15.15353,-0.0222 -14.74191,-0.21413 z"
       id="path4733-8"
       inkscape:connector-curvature="0" />
    <path
       style="fill:#e6e7e7;fill-opacity:1"
       d="m 629.70554,668.93795 c 0.0289,-0.0288 0.80945,-0.39629 1.73447,-0.81672 2.30167,-1.04613 4.42564,-2.22462 6.52563,-3.62077 1.79425,-1.19288 3.90669,-2.84207 4.15507,-3.24389 0.11648,-0.18842 -0.24155,-0.6 -2.45128,-2.81795 -1.42322,-1.42851 -3.4881,-3.4576 -4.58862,-4.50911 l -2.00095,-1.91182 -0.71384,0.37349 c -0.3926,0.20542 -0.73289,0.41647 -0.75618,0.46899 -0.0233,0.0525 -0.0943,0.0634 -0.15784,0.0241 -0.0635,-0.0392 -0.11548,-0.0165 -0.11548,0.0506 0,0.13477 -1.99773,1.18656 -3.283,1.72847 -3.72307,1.56976 -7.17591,2.25487 -11.36421,2.25487 -2.95911,0 -4.51587,-0.18995 -7.19448,-0.87787 -1.45341,-0.37326 -2.0523,-0.61368 -4.10374,-1.64749 -3.93795,-1.98451 -6.01995,-3.47867 -8.71966,-6.25773 -4.26315,-4.38844 -6.62355,-9.13794 -7.63792,-15.36872 -0.0874,-0.53681 -0.19264,-0.86531 -0.24835,-0.77517 -0.16307,0.26386 -0.24606,-0.66894 -0.32558,-3.65967 -0.0437,-1.64155 -0.024,-3.13426 0.0465,-3.53553 l 0.12201,-0.69448 0.0306,1.01015 0.0306,1.01015 0.17628,-1.13642 c 0.62256,-4.01363 1.3253,-6.44833 2.64201,-9.15351 1.24388,-2.55555 2.0691,-3.66769 4.59481,-6.1924 5.35113,-5.349 9.93245,-7.74935 16.42009,-8.60319 1.76844,-0.23274 6.16588,-0.19686 8.08122,0.066 3.20405,0.43963 5.65734,1.13434 8.39689,2.37778 0.76393,0.34674 1.50628,0.6476 1.64968,0.66859 0.14339,0.021 0.82099,0.38244 1.50577,0.80324 0.68478,0.4208 1.29697,0.733 1.36042,0.69379 0.0634,-0.0392 1.13964,-1.35752 2.39154,-2.92955 1.25189,-1.57203 2.39747,-2.95443 2.54574,-3.072 0.14826,-0.11757 0.26957,-0.26742 0.26957,-0.33301 0,-0.0656 0.12651,-0.22509 0.28115,-0.35445 0.15463,-0.12936 0.81623,-0.91706 1.47022,-1.75043 0.88916,-1.13305 1.16206,-1.56617 1.08198,-1.71718 -0.0589,-0.11108 -0.52012,-0.53723 -1.02494,-0.94702 -0.50481,-0.40979 -1.03298,-0.8639 -1.17372,-1.00915 -0.14074,-0.14524 -0.67757,-0.62822 -1.19296,-1.07328 l -0.93707,-0.80921 2.2629,-0.0789 c 1.24459,-0.0434 6.25458,-0.086 11.1333,-0.0947 l 8.8704,-0.0158 0,9.26024 c 0,11.4922 0.1,16.45432 0.33627,16.69061 0.23374,0.23375 0.25106,18.80854 0.018,19.32003 -0.11689,0.25654 -0.11689,0.38527 0,0.57244 0.11478,0.1838 0.1508,3.99614 0.1508,15.96368 l 0,15.7222 -15.17334,0 c -8.34533,0 -15.14965,-0.0235 -15.12072,-0.0523 z"
       id="path4735-1"
       inkscape:connector-curvature="0" />
    <path
       style="fill:#e6e7e7;fill-opacity:1"
       d="m 630.2001,668.70328 c 4.04613,-1.93184 5.60936,-2.77843 7.70241,-4.17136 2.53971,-1.69018 4.16657,-3.02416 4.16755,-3.41726 5.1e-4,-0.18616 -1.30949,-1.56301 -4.26158,-4.47922 -2.34424,-2.31574 -4.39047,-4.29705 -4.54718,-4.4029 -0.26898,-0.18169 -0.3503,-0.15359 -1.4521,0.50183 -3.44918,2.05179 -7.05692,3.35553 -10.95301,3.95813 -2.00033,0.30939 -6.32091,0.31198 -8.29116,0.005 -1.75777,-0.27391 -4.11111,-0.86269 -5.13561,-1.28488 -0.42818,-0.17644 -0.83533,-0.33302 -0.90477,-0.34794 -0.0695,-0.0149 -0.15468,-0.0591 -0.18941,-0.0982 -0.0347,-0.0391 -0.80181,-0.45685 -1.70463,-0.92834 -3.26661,-1.70593 -5.56551,-3.41855 -8.08358,-6.02207 -3.94761,-4.08156 -6.24482,-8.54202 -7.33743,-14.24696 -0.18609,-0.9716 -0.38005,-1.74077 -0.43104,-1.70926 -0.051,0.0315 -0.12693,-0.12679 -0.16876,-0.35179 -0.14495,-0.77963 -0.23995,-5.59085 -0.13024,-6.59627 l 0.11022,-1.01015 0.0658,0.88388 0.0658,0.88389 0.16984,-1.13643 c 0.74973,-5.01656 2.27355,-9.10811 4.53432,-12.17492 0.89752,-1.21751 3.50803,-3.89161 5.1441,-5.26941 1.42445,-1.19959 3.70009,-2.77803 5.11389,-3.54712 6.94309,-3.77698 17.51875,-3.89476 25.33814,-0.28219 0.59455,0.27468 1.13132,0.46832 1.19282,0.43032 0.0615,-0.038 0.11182,-0.006 0.11182,0.0721 0,0.0777 0.048,0.11154 0.10657,0.0753 0.0586,-0.0362 0.71797,0.30135 1.46523,0.75016 0.74726,0.44882 1.43259,0.81603 1.52295,0.81603 0.0904,0 1.40044,-1.54837 2.91129,-3.44083 1.51085,-1.89246 2.9089,-3.57323 3.10678,-3.73504 0.19788,-0.16181 0.32747,-0.34648 0.28798,-0.41037 -0.0395,-0.0639 -0.0145,-0.11617 0.0555,-0.11617 0.1686,0 1.65769,-1.91447 1.58304,-2.03526 -0.0319,-0.0516 -2.5e-4,-0.12956 0.0703,-0.17318 0.2452,-0.15154 0.12174,-0.29785 -1.06525,-1.26238 -0.65648,-0.53344 -1.43777,-1.20852 -1.7362,-1.50019 -0.29844,-0.29166 -0.73442,-0.68695 -0.96885,-0.87842 -0.23442,-0.19148 -0.38638,-0.38798 -0.33769,-0.43668 0.0487,-0.0487 5.05609,-0.10958 11.12754,-0.1353 l 11.03899,-0.0468 0.0115,8.56895 c 0.0151,11.28428 0.12891,17.15674 0.33655,17.36437 0.2231,0.2231 0.22912,18.87686 0.006,19.366 -0.11688,0.25654 -0.11688,0.38527 0,0.57244 0.11478,0.1838 0.1508,3.99614 0.1508,15.96368 l 0,15.7222 -15.18386,-0.008 -15.18385,-0.008 0.56821,-0.2713 0,-1e-5 z"
       id="path4737-0"
       inkscape:connector-curvature="0" />
    <path
       style="fill:#e6e7e7;fill-opacity:1"
       d="m 630.5789,668.50094 c 3.98706,-1.79548 7.47586,-3.87379 10.25137,-6.10683 1.1624,-0.9352 1.30749,-1.12431 1.12224,-1.46267 -0.0638,-0.1165 -2.0728,-2.1592 -4.46449,-4.53933 -3.50138,-3.48446 -4.39499,-4.31072 -4.58709,-4.24134 -0.13122,0.0474 -0.6395,0.32663 -1.1295,0.62055 -7.2262,4.33442 -16.04641,5.38379 -23.81382,2.8332 -0.84817,-0.2785 -1.6312,-0.58473 -1.74008,-0.6805 -0.10888,-0.0958 -0.62412,-0.38615 -1.14498,-0.64528 -3.05091,-1.51785 -5.38636,-3.17029 -7.74678,-5.4812 -4.60157,-4.50505 -6.98074,-8.97528 -8.23793,-15.4783 -0.12083,-0.62503 -0.27069,-1.17042 -0.33302,-1.21197 -0.28456,-0.18973 -0.48202,-5.90879 -0.25508,-7.38827 l 0.0947,-0.6174 0.0631,0.75761 0.0631,0.75762 0.22917,-1.38896 c 0.86746,-5.25756 2.57507,-9.44214 5.06276,-12.40652 1.11787,-1.33207 3.42555,-3.62124 4.80959,-4.771 1.26171,-1.04814 4.08856,-2.95067 5.26296,-3.54208 6.92521,-3.48749 16.68147,-3.60607 24.39135,-0.29646 0.61462,0.26384 1.20636,0.44561 1.31497,0.40393 0.14085,-0.0541 0.16784,-0.0278 0.0941,0.0915 -0.0663,0.10726 -0.0544,0.13696 0.0333,0.0828 0.0751,-0.0464 0.82802,0.31799 1.67306,0.80983 0.84505,0.49184 1.6164,0.92494 1.7141,0.96243 0.21243,0.0815 0.0647,0.25021 3.22672,-3.68402 1.39543,-1.7362 2.65802,-3.26257 2.80576,-3.39193 0.14774,-0.12936 0.26862,-0.28887 0.26862,-0.35445 0,-0.0656 0.14206,-0.22838 0.31568,-0.36177 0.17362,-0.13338 0.26539,-0.24378 0.20394,-0.24532 -0.0614,-0.002 0.041,-0.12293 0.22762,-0.26974 0.18664,-0.14682 0.30831,-0.29798 0.27037,-0.33592 -0.0379,-0.0379 0.0453,-0.14899 0.18486,-0.24678 0.13962,-0.0978 0.22482,-0.22478 0.18933,-0.2822 -0.0355,-0.0574 0.024,-0.13836 0.13216,-0.17987 0.10818,-0.0415 0.1653,-0.12626 0.12693,-0.18833 -0.0384,-0.0621 0.0149,-0.18307 0.11827,-0.26889 0.10341,-0.0858 0.18801,-0.19655 0.18801,-0.24607 0,-0.0495 -0.51533,-0.51134 -1.14517,-1.02626 -0.62985,-0.51493 -1.35462,-1.1351 -1.61059,-1.37817 -0.25598,-0.24307 -0.71167,-0.65944 -1.01263,-0.92526 -0.30097,-0.26583 -0.50903,-0.52153 -0.46237,-0.56821 0.0467,-0.0467 5.04257,-0.1043 11.10201,-0.12802 l 11.01717,-0.0431 0.0942,11.91242 c 0.0552,6.97347 0.1495,12.35741 0.22755,12.98571 0.10146,0.81682 0.21817,18.08148 0.13912,20.58186 -0.005,0.17362 0.012,7.46092 0.039,16.19401 l 0.049,15.87832 -15.24796,-0.003 -15.24796,-0.003 1.07328,-0.48333 z"
       id="path4739-2"
       inkscape:connector-curvature="0" />
    <path
       style="fill:#e6e7e7;fill-opacity:1"
       d="m 659.85629,617.39938 c -0.0331,-0.0619 -0.0831,-0.91134 -0.12955,-2.20022 -0.0999,-2.77336 -0.22066,-13.94615 -0.22092,-20.43191 l -1.3e-4,-3.32245 0.22097,0 0.22097,0 0,13.00571 c 0,8.33325 -0.0109,13.00571 -0.0305,13.00571 -0.0168,0 -0.0441,-0.0256 -0.0609,-0.0568 z"
       id="path4741-2"
       inkscape:connector-curvature="0" />
    <path
       style="fill:#e6e7e7;fill-opacity:1"
       d="m 675.09992,605.18373 0,-13.73893 11.7588,0 c 6.46735,0 11.75881,0.007 11.75881,0.0148 0,0.016 -23.31767,27.25513 -23.44241,27.38484 l -0.0752,0.0782 0,-13.73894 z m 0.93439,12.08763 c 0.17453,-0.12782 0.6352,-0.61322 1.27756,-1.34615 1.56853,-1.7897 4.78631,-5.54104 9.34169,-10.89071 7.67467,-9.01281 10.56003,-12.36951 11.57977,-13.47133 l 0.0803,-0.0868 -11.55952,0 -11.55953,0 5.9e-4,9.69905 c 7.7e-4,12.58264 0.0314,14.45143 0.25532,15.5667 0.11926,0.59403 0.2873,0.74637 0.58378,0.52925 z"
       id="path4743-9"
       inkscape:connector-curvature="0" />
    <rect
       style="fill:#e6e7e7;fill-opacity:1"
       id="rect4745-75"
       width="18.035713"
       height="89.821426"
       x="-0.32342687"
       y="588.56757" />
    <path
       style="fill:#c7a96b;fill-opacity:1"
       d="m 14.238996,629.59939 0,-39.20654 7.576143,0 7.57615,0 0,39.20654 0,39.20654 -7.57615,0 -7.576143,0 0,-39.20654 z"
       id="path4157-64"
       inkscape:connector-curvature="0" />
    <rect
       style="fill:#e6e7e7;fill-opacity:1"
       id="rect4745-7-6"
       width="49.107143"
       height="89.821426"
       x="681.01593"
       y="584.54968" />
    <path
       style="fill:#c7a96b;fill-opacity:1"
       d="m 688.86243,602.8839 29.28859,-34.20081 6.18907,5.03947 6.18908,5.03947 -29.2886,34.20082 -29.28859,34.2008 -6.18908,-5.03947 -6.18907,-5.03947 29.2886,-34.20081 z"
       id="path4157-6-6-3"
       inkscape:connector-curvature="0" />
    <path
       style="fill:#c7a96b;fill-opacity:1"
       d="m 701.09495,669.81886 -30.76381,-29.94981 5.28484,-5.42848 5.28484,-5.42848 30.76381,29.94982 30.76382,29.94982 -5.28484,5.42848 -5.28484,5.42848 -30.76382,-29.94983 z"
       id="path4157-6-4-7"
       inkscape:connector-curvature="0" />
    <rect
       style="fill:#241c1c;fill-opacity:1"
       id="rect4762-4"
       width="29.285713"
       height="136.42485"
       x="836.81946"
       y="340.53555" />
    <rect
       style="fill:#241c1c;fill-opacity:1"
       id="rect4764-9"
       width="34.285713"
       height="145"
       x="901.81946"
       y="332.67468" />
    <path
       style="fill:#f3f3f3;fill-opacity:1;fill-rule:evenodd"
       d="m -10.501516,149.35333 0,-38.57143 15.714286,0 15.714286,0 0,38.57143 0,38.57143 -15.714286,0 -15.714286,0 0,-38.57143 z"
       id="path6621"
       inkscape:connector-curvature="0" />
    <path
       style="fill:#f3f3f3;fill-opacity:1;fill-rule:evenodd"
       d="m 36.641342,154.69436 0,-32.51612 13.035714,0.19469 13.035714,0.19468 0.18585,32.32143 0.185851,32.32143 -13.221565,0 -13.221564,0 0,-32.51611 z"
       id="path6623"
       inkscape:connector-curvature="0" />
    <path
       style="fill:#f3f3f3;fill-opacity:1;fill-rule:evenodd"
       d="m 78.784199,148.99619 0,-38.21429 10.714285,0 c 8.240164,0 10.714286,0.21154 10.714286,0.91609 0,0.72221 -14.487946,67.36079 -16.06782,73.90534 -0.310097,1.28456 -0.887024,1.60714 -2.87436,1.60714 l -2.486391,0 0,-38.21428 z"
       id="path6625"
       inkscape:connector-curvature="0" />
    <path
       style="fill:#f3f3f3;fill-opacity:1;fill-rule:evenodd"
       d="m 105.23679,186.31761 c 0.0248,-0.92306 10.3924,-47.64112 11.13552,-50.17857 0.23011,-0.78571 0.45365,-1.99107 0.49677,-2.67857 0.0431,-0.6875 0.29655,-1.25 0.56319,-1.25 0.5216,0 1.63485,2.2049 1.49213,2.95531 -0.0476,0.25042 0.24039,1.53614 0.64005,2.85714 0.39966,1.32101 0.86002,2.88398 1.02303,3.47327 0.66759,2.41338 10.33958,44.66629 10.33958,45.16934 0,0.29972 -5.78572,0.54494 -12.85715,0.54494 -9.82233,0 -12.85147,-0.21075 -12.83312,-0.89286 z"
       id="path6627"
       inkscape:connector-curvature="0" />
    <path
       style="fill:#f3f3f3;fill-opacity:1;fill-rule:evenodd"
       d="m 152.58729,186.31761 c -0.31181,-0.49107 -0.59806,-1.05357 -0.63611,-1.25 -0.038,-0.19642 -0.28069,-1.16071 -0.53921,-2.14285 -0.25853,-0.98215 -0.624,-2.58929 -0.81217,-3.57143 -0.18817,-0.98214 -3.72723,-16.54254 -7.86458,-34.57867 -4.13735,-18.03612 -7.52245,-33.06291 -7.52245,-33.39285 0,-0.32995 6.91071,-0.59991 15.35714,-0.59991 l 15.35715,0 0,38.21429 0,38.21428 -6.38642,0 c -4.33058,0 -6.56892,-0.28741 -6.95335,-0.89286 z"
       id="path6629"
       inkscape:connector-curvature="0" />
    <path
       style="fill:#f3f3f3;fill-opacity:1;fill-rule:evenodd"
       d="m 181.64134,175.00809 c 0,-6.89197 0.27854,-12.09876 0.64002,-11.96429 0.65264,0.24279 5.94028,6.71875 14.62903,17.91667 l 4.84953,6.25 -10.05929,0 -10.05929,0 0,-12.20238 z"
       id="path6631"
       inkscape:connector-curvature="0" />
    <path
       style="fill:#f3f3f3;fill-opacity:1;fill-rule:evenodd"
       d="m 210.0255,172.74619 c -6.14346,-7.95536 -11.67273,-15.0314 -12.28727,-15.72452 -0.61455,-0.69313 -1.19311,-1.93526 -1.28569,-2.76028 -0.13788,-1.22858 0.42249,-1.65329 3.09641,-2.34682 7.32709,-1.90041 15.19876,-8.77989 17.3838,-15.19262 1.43376,-4.20785 1.46461,-11.97522 0.0633,-15.94685 -0.59061,-1.67395 -2.19722,-4.60722 -3.57024,-6.51837 l -2.49642,-3.47483 22.67739,0.0372 22.67738,0.0372 -4.34057,1.61378 c -15.69139,5.8339 -25.47056,19.80697 -25.51661,36.45967 -0.0457,16.54076 9.05998,30.28466 24.18335,36.50163 l 4.24526,1.74515 -16.8301,0.017 -16.83011,0.017 -11.16992,-14.46428 z"
       id="path6633"
       inkscape:connector-curvature="0" />
    <path
       style="fill:#f3f3f3;fill-opacity:1;fill-rule:evenodd"
       d="m 256.15745,170.91799 c -15.38876,-6.25404 -19.67162,-25.69487 -8.19006,-37.17643 11.28959,-11.28958 30.26767,-8.31309 37.23517,5.83991 2.42423,4.92431 2.98944,11.15602 1.51012,16.64979 -1.63071,6.05598 -7.99805,12.6642 -14.36816,14.9117 -4.04317,1.42652 -12.40952,1.31024 -16.18707,-0.22497 z"
       id="path6635"
       inkscape:connector-curvature="0" />
    <path
       style="fill:#f3f3f3;fill-opacity:1;fill-rule:evenodd"
       d="m 275.94766,186.18573 c 8.89531,-3.29595 17.65308,-10.60196 21.6117,-18.02917 2.59235,-4.86379 4.79888,-13.66836 4.78571,-19.09606 -0.0362,-14.9183 -8.63251,-28.34526 -22.48944,-35.1273 l -6.42857,-3.14635 17.90234,-0.002 17.90235,-0.002 5.16169,26.25 c 2.83892,14.4375 5.31297,27.05357 5.49787,28.03571 0.65347,3.471 1.02519,5.37721 1.39289,7.14286 0.49128,2.35908 1.12956,5.68633 1.47338,7.68049 0.63699,3.69453 0.86045,4.87497 1.11516,5.89094 0.23451,0.93545 -2.94949,1.08833 -25.08854,1.2046 -21.58435,0.11336 -24.98211,-0.006 -22.83654,-0.80077 z"
       id="path6637"
       inkscape:connector-curvature="0" />
    <path
       style="fill:#f3f3f3;fill-opacity:1;fill-rule:evenodd"
       d="m 334.63027,142.83015 c -2.39817,-12.32296 -4.53245,-23.36968 -4.74285,-24.54825 -0.8857,-4.96128 -1.19716,-6.35984 -1.53979,-6.91423 -0.19912,-0.32218 4.67926,-0.58577 10.84084,-0.58577 l 11.20287,0 -0.4953,2.32143 c -0.27242,1.27678 -0.63737,3.125 -0.81101,4.10714 -0.17363,0.98214 -0.5067,2.58929 -0.74014,3.57143 -0.23345,0.98214 -0.58022,2.75 -0.77062,3.92857 -0.30448,1.88479 -3.34292,16.86845 -4.20052,20.71429 -0.17521,0.78571 -0.47453,2.23214 -0.66515,3.21428 -0.63025,3.24723 -1.05068,5.33507 -1.43838,7.14286 -0.21064,0.98214 -0.56982,3.07143 -0.79818,4.64286 -0.22836,1.57143 -0.65512,3.29671 -0.94834,3.83396 -0.29845,0.54684 -2.45247,-8.88571 -4.89343,-21.42857 z"
       id="path6639"
       inkscape:connector-curvature="0" />
    <path
       style="fill:#f3f3f3;fill-opacity:1;fill-rule:evenodd"
       d="m 354.49848,186.62428 c 0,-2.0799 5.8574,-29.12835 6.4323,-29.70325 0.42995,-0.42994 0.73407,-0.44258 0.77009,-0.032 0.0752,0.85679 0.4562,3.01642 0.93891,5.32143 0.20568,0.98214 1.46655,7.00893 2.80194,13.39286 l 2.42797,11.60714 -6.6856,0 c -3.67708,0 -6.68561,-0.26379 -6.68561,-0.58619 z"
       id="path6641"
       inkscape:connector-curvature="0" />
    <path
       style="fill:#f3f3f3;fill-opacity:1;fill-rule:evenodd"
       d="m 382.56416,165.24619 c -0.0537,-0.6875 -0.27124,-2.05358 -0.48349,-3.03572 -0.64434,-2.98167 -9.50246,-46.61791 -9.97238,-49.12521 l -0.43846,-2.33949 11.23576,0.19664 c 8.04349,0.14077 11.19116,0.43189 11.07879,1.02467 -0.0863,0.45542 -0.33381,1.90184 -0.54995,3.21428 -1.48406,9.01145 -10.02283,51.31483 -10.3577,51.31483 -0.22824,0 -0.4589,-0.5625 -0.51257,-1.25 z"
       id="path6643"
       inkscape:connector-curvature="0" />
    <path
       style="fill:#f3f3f3;fill-opacity:1;fill-rule:evenodd"
       d="m 405.86712,149.00443 7.55994,-38.20604 7.32142,-0.008 7.32143,-0.008 0,38.21429 0,38.21428 -14.88136,0 -14.88137,0 7.55994,-38.20604 z"
       id="path6645"
       inkscape:connector-curvature="0" />
    <path
       style="fill:#f3f3f3;fill-opacity:1;fill-rule:evenodd"
       d="m 457.11112,187.38978 -13.45879,-0.21131 0.39364,-4.09114 c 0.21651,-2.25013 0.40689,-9.47507 0.42308,-16.05543 l 0.0294,-11.96429 13.21429,0 13.21429,0 0,16.42858 c 0,9.03571 -0.0804,16.35575 -0.17858,16.26674 -0.0982,-0.089 -6.23502,-0.25692 -13.63736,-0.37315 z"
       id="path6647"
       inkscape:connector-curvature="0" />
    <path
       style="fill:#f3f3f3;fill-opacity:1;fill-rule:evenodd"
       d="m 457.17706,140.96146 -13.39286,-0.21108 0,-14.98424 0,-14.98424 13.57143,0 13.57143,0 0,15.35714 c 0,8.44643 -0.0804,15.28432 -0.17858,15.19532 -0.0982,-0.089 -6.20535,-0.25681 -13.57142,-0.3729 z"
       id="path6649"
       inkscape:connector-curvature="0" />
    <path
       style="fill:#f3f3f3;fill-opacity:1;fill-rule:evenodd"
       d="m 486.64134,149.02507 0,-38.24317 14.33385,0 c 13.3168,0 14.30746,0.0887 13.96188,1.25 -0.64217,2.158 -2.70057,11.1528 -3.06487,13.39286 -0.19167,1.17857 -3.29841,15.48214 -6.90387,31.78571 l -6.55538,29.64286 -5.88581,0.20746 -5.8858,0.20745 0,-38.24317 z"
       id="path6651"
       inkscape:connector-curvature="0" />
    <path
       style="fill:#f3f3f3;fill-opacity:1;fill-rule:evenodd"
       d="m 519.99687,186.69033 c -0.23663,-0.40833 7.91344,-38.43397 11.29397,-52.69414 0.18627,-0.78572 0.49452,-2.20855 0.685,-3.16185 0.36264,-1.81484 1.76677,-3.71167 1.86301,-2.51673 0.0301,0.37322 0.17518,1.16072 0.3225,1.75 1.10629,4.42526 11.74521,51.10852 12.00238,52.66607 0.17951,1.08724 0.44077,2.45893 0.58057,3.04822 0.2178,0.91804 -1.65572,1.09922 -13.08689,1.26557 -7.3376,0.10678 -13.48484,-0.0539 -13.66054,-0.35714 z"
       id="path6653"
       inkscape:connector-curvature="0" />
    <path
       style="fill:#f3f3f3;fill-opacity:1;fill-rule:evenodd"
       d="m 559.80558,149.17476 -8.61699,-38.03572 22.83539,-0.18861 c 12.55946,-0.10373 22.99611,-0.0279 23.19256,0.16857 0.19645,0.19645 -0.57582,1.06744 -1.71615,1.93553 -6.69088,5.09351 -12.33547,13.21939 -14.96506,21.54352 -2.04587,6.47633 -2.48191,16.85421 -0.96844,23.04935 2.38587,9.7662 8.54936,18.80192 17.23683,25.26934 l 5.76763,4.29373 -17.07439,0 -17.0744,0 -8.61698,-38.03571 z"
       id="path6655"
       inkscape:connector-curvature="0" />
    <path
       style="fill:#f3f3f3;fill-opacity:1;fill-rule:evenodd"
       d="m 640.9225,185.39325 c 2.55106,-1.37448 5.27713,-3.13789 6.05793,-3.9187 1.41667,-1.41666 1.41061,-1.42867 -2.88645,-5.72573 l -4.3061,-4.30609 -4.25184,1.99101 c -3.84423,1.80014 -5.00509,1.99102 -12.10898,1.99102 -7.45132,0 -8.08292,-0.11801 -12.22832,-2.28471 -5.77477,-3.01833 -10.38458,-7.74696 -13.27392,-13.61604 -2.22072,-4.51093 -2.3532,-5.21172 -2.32489,-12.29852 0.0261,-6.53388 0.2707,-8.03604 1.8735,-11.50576 2.5589,-5.53946 7.93418,-10.86412 13.68331,-13.55447 8.27423,-3.87197 17.70267,-3.57495 26.33648,0.82969 l 2.68058,1.36753 3.98569,-4.826 3.98568,-4.82601 -2.19175,-1.96428 -2.19176,-1.96429 11.43675,0 11.43674,0 -0.006,38.57143 -0.006,38.57143 -15.16882,-0.0162 -15.16881,-0.0162 4.63829,-2.49906 -4.5e-4,-2e-5 z"
       id="path6657"
       inkscape:connector-curvature="0" />
    <path
       style="fill:#f3f3f3;fill-opacity:1;fill-rule:evenodd"
       d="m 681.64134,123.99619 0,-13.21429 11.48042,0 11.48041,0 -1.30184,1.63814 c -3.15719,3.97275 -21.09717,24.79043 -21.36357,24.79043 -0.16248,0 -0.29542,-5.94643 -0.29542,-13.21428 z"
       id="path6659"
       inkscape:connector-curvature="0" />
    <path
       style="fill:#f3f3f3;fill-opacity:1;fill-rule:evenodd"
       d="m 723.7842,182.77146 c -2.94643,-2.82112 -11.36785,-11.05696 -18.71427,-18.30186 l -13.35712,-13.17255 17.2857,-20.23286 17.28569,-20.23286 8.39286,-0.0247 8.39285,-0.0247 0,38.57143 0,38.57143 -6.96428,-0.012 -6.96429,-0.012 -5.35714,-5.12932 0,2e-5 z"
       id="path6661"
       inkscape:connector-curvature="0" />
    <path
       style="fill:#f3f3f3;fill-opacity:1;fill-rule:evenodd"
       d="m 681.64233,175.96047 c -5.4e-4,-6.38393 0.24374,-11.60714 0.54285,-11.60714 0.2991,0 5.84375,5.32903 12.32142,11.84229 l 11.7776,11.8423 -12.32044,-0.23515 -12.32045,-0.23516 -9.8e-4,-11.60714 z"
       id="path6663"
       inkscape:connector-curvature="0" />
    <path
       style="fill:#f3f3f3;fill-opacity:1;fill-rule:evenodd"
       d="m 0.31004301,628.46047 c 0.0535,-22.09822 0.23657,-39.45536 0.406822,-38.57143 0.29345499,1.52358 0.64120269,1.60714 6.68844169,1.60714 l 6.3788923,0 0,38.57143 0,38.57143 -6.7857143,0 -6.78571469,0 0.097273,-40.17857 z"
       id="path6665"
       inkscape:connector-curvature="0" />
    <path
       style="fill:#f3f3f3;fill-opacity:1;fill-rule:evenodd"
       d="m 29.498485,636.13904 0,-32.5 13.214285,0 13.214286,0 0,32.5 0,32.5 -13.214286,0 -13.214285,0 0,-32.5 z"
       id="path6667"
       inkscape:connector-curvature="0" />
    <path
       style="fill:#f3f3f3;fill-opacity:1;fill-rule:evenodd"
       d="m 71.641342,630.09655 0,-38.60037 11.154736,0 c 10.265929,0 11.12994,0.0996 10.843517,1.25 -0.17117,0.6875 -3.976697,17.98603 -8.456725,38.44117 l -8.145506,37.19117 -2.698011,0.1592 -2.698011,0.15919 0,-38.60036 z"
       id="path6669"
       inkscape:connector-curvature="0" />
    <path
       style="fill:#f3f3f3;fill-opacity:1;fill-rule:evenodd"
       d="m 99.434156,668.05312 c -0.99465,-0.42519 -0.48273,-3.41413 4.120284,-24.05694 2.89083,-12.96428 5.44145,-24.375 5.66805,-25.35714 0.66708,-2.89131 0.87767,-3.89612 0.93563,-4.46429 0.0301,-0.29464 0.55577,-0.53571 1.16824,-0.53571 0.61247,0 0.94321,0.27567 0.73498,0.61259 -0.20823,0.33693 -0.0489,1.703 0.35415,3.03571 0.40302,1.33272 0.87585,2.98563 1.05074,3.67313 0.17488,0.6875 0.46028,1.8125 0.63421,2.5 0.17392,0.6875 2.41796,10.41071 4.98674,21.60714 2.56879,11.19643 4.84332,21.08036 5.05452,21.96429 l 0.38401,1.60714 -11.9779,-0.0502 c -6.58784,-0.0276 -12.48899,-0.26869 -13.113654,-0.53572 z"
       id="path6671"
       inkscape:connector-curvature="0" />
    <path
       style="fill:#f3f3f3;fill-opacity:1;fill-rule:evenodd"
       d="m 146.17604,668.09239 c -0.45235,-0.28863 -0.98356,-1.48907 -1.18047,-2.66764 -0.19691,-1.17857 -0.53482,-2.625 -0.7509,-3.21428 -0.21609,-0.58929 -0.54981,-2.03572 -0.74161,-3.21429 -0.1918,-1.17857 -0.5137,-2.78571 -0.71532,-3.57143 -0.20163,-0.78571 -3.4471,-14.92857 -7.21217,-31.42857 -3.76506,-16.5 -7.01575,-30.5625 -7.22375,-31.25 -0.35201,-1.16353 0.68754,-1.25 15.02711,-1.25 l 15.40527,0 0,38.57143 0,38.57143 -5.89285,-0.0109 c -3.24108,-0.006 -6.26296,-0.24709 -6.71531,-0.53571 l 0,-1e-5 z"
       id="path6673"
       inkscape:connector-curvature="0" />
    <path
       style="fill:#f3f3f3;fill-opacity:1;fill-rule:evenodd"
       d="m 174.49849,656.53834 c 0,-6.65539 0.2782,-12.27264 0.61822,-12.48279 0.5534,-0.34202 3.10078,2.71822 16.45014,19.76206 l 3.77633,4.82143 -10.42235,0 -10.42234,0 0,-12.1007 z"
       id="path6675"
       inkscape:connector-curvature="0" />
    <path
       style="fill:#f3f3f3;fill-opacity:1;fill-rule:evenodd"
       d="m 203.59693,654.17475 c -6.14345,-7.95535 -11.58776,-14.97356 -12.09847,-15.59601 -0.5107,-0.62245 -1.33654,-1.8334 -1.83521,-2.691 -0.81576,-1.40292 -0.72157,-1.62965 0.93935,-2.26113 1.01532,-0.38602 2.16644,-0.70186 2.55805,-0.70186 2.14426,0 8.74619,-4.06425 11.65721,-7.17636 5.01985,-5.36664 6.46908,-9.06178 6.43012,-16.39507 -0.0273,-5.13228 -0.32468,-6.63573 -1.92274,-9.7196 -1.03976,-2.00649 -2.74043,-4.65828 -3.77925,-5.89286 l -1.88878,-2.24468 23.09921,0.0483 c 17.07723,0.0357 22.63367,0.24755 21.3135,0.81246 -10.01258,4.28439 -12.54482,5.82221 -17.10687,10.38898 -12.32538,12.33814 -14.93863,30.35229 -6.68234,46.06403 3.79485,7.22161 9.60888,12.71074 17.6097,16.62564 l 6.53665,3.19846 -16.8301,0.002 -16.8301,0.002 -11.16993,-14.46429 z"
       id="path6677"
       inkscape:connector-curvature="0" />
    <path
       style="fill:#f3f3f3;fill-opacity:1;fill-rule:evenodd"
       d="m 251.60603,652.71045 c -6.4455,-1.82614 -12.2857,-6.85345 -15.10204,-12.99998 -2.33276,-5.09116 -2.25707,-13.54776 0.16622,-18.57143 2.18688,-4.53356 6.46803,-8.82702 11.04256,-11.07428 2.97936,-1.46363 4.63717,-1.75684 10,-1.76868 7.62322,-0.0168 11.61703,1.56525 16.64563,6.59385 4.67787,4.67786 6.19819,8.57823 6.19452,15.89197 -0.003,5.17707 -0.28044,6.59751 -1.88616,9.64285 -5.25246,9.96158 -16.78449,15.19717 -27.06073,12.2857 z"
       id="path6679"
       inkscape:connector-curvature="0" />
    <path
       style="fill:#f3f3f3;fill-opacity:1;fill-rule:evenodd"
       d="m 332.07249,644.33331 c -0.35624,-1.04043 -8.59472,-42.40753 -9.36212,-47.00909 -1.01983,-6.11519 -1.36697,-5.82804 7.04557,-5.82804 4.07017,0 8.84454,0.19796 10.60972,0.4399 l 3.20941,0.4399 -1.01787,4.73867 c -0.55983,2.60627 -1.15894,5.38153 -1.33137,6.16725 -0.17242,0.78571 -0.46946,2.23214 -0.66009,3.21428 -0.58386,3.00826 -1.03801,5.27451 -1.43141,7.14286 -0.2068,0.98214 -0.55561,2.91071 -0.77513,4.28571 -0.21953,1.375 -0.72255,3.94643 -1.11782,5.71429 -0.93657,4.18878 -1.25577,5.68924 -1.67146,7.85714 -0.18833,0.98214 -0.46884,2.42857 -0.62336,3.21429 -0.15451,0.78571 -0.50048,3.05108 -0.76881,5.03416 -0.56702,4.19048 -1.52596,6.28061 -2.10526,4.58868 z"
       id="path6681"
       inkscape:connector-curvature="0" />
    <path
       style="fill:#f3f3f3;fill-opacity:1;fill-rule:evenodd"
       d="m 268.06992,667.7853 c 8.25353,-3.49907 11.45799,-5.48958 15.79677,-9.81251 7.70566,-7.67751 11.51615,-16.91085 11.51615,-27.90518 0,-10.86842 -3.94643,-20.26612 -11.72779,-27.92761 -3.83018,-3.77117 -8.12505,-6.35214 -16.29942,-9.79502 -1.31772,-0.555 3.02203,-0.76478 16.55901,-0.80046 16.87718,-0.0445 18.37458,0.0517 18.71793,1.20166 0.41331,1.38436 10.08101,50.4922 10.72221,54.46429 0.22195,1.375 0.5734,3.30357 0.781,4.28571 0.20759,0.98214 0.53153,2.58929 0.71985,3.57143 0.18833,0.98214 0.50976,2.58929 0.71429,3.57143 0.37152,1.78404 0.74826,3.69853 1.42323,7.23257 0.31287,1.6381 0.076,1.93187 -1.8718,2.32143 -4.10739,0.82148 -49.03258,0.43216 -47.05143,-0.40774 z"
       id="path6683"
       inkscape:connector-curvature="0" />
    <path
       style="fill:#f3f3f3;fill-opacity:1;fill-rule:evenodd"
       d="m 375.87241,646.10332 c -0.055,-0.68301 -0.12815,-1.04576 -1.00091,-4.96428 -0.2625,-1.17857 -0.59421,-2.78572 -0.73713,-3.57143 -0.14292,-0.78571 -2.20875,-11.05626 -4.59073,-22.82343 -2.38198,-11.76716 -4.33087,-21.81181 -4.33087,-22.32142 0,-0.71312 2.18036,-0.92433 9.46429,-0.91682 11.75561,0.0121 12.79771,0.24504 12.31158,2.75184 -0.20065,1.03469 -0.53786,3.00626 -0.74936,4.38126 -1.20199,7.81436 -9.19074,46.89442 -9.70265,47.46428 -0.38499,0.42858 -0.6297,0.42858 -0.66422,0 z"
       id="path6685"
       inkscape:connector-curvature="0" />
    <path
       style="fill:#f3f3f3;fill-opacity:1;fill-rule:evenodd"
       d="m 347.62076,667.38904 c 0.19877,-0.6875 1.52589,-7.19643 2.94916,-14.46429 1.42326,-7.26785 2.75038,-13.77678 2.94915,-14.46428 0.46625,-1.61264 1.36361,-1.61264 1.47021,0 0.0455,0.6875 0.27238,2.05357 0.50429,3.03571 0.73814,3.12608 1.01378,4.42443 3.24608,15.29001 1.20307,5.85594 2.18741,10.91844 2.18741,11.25 0,0.33157 -3.07523,0.60285 -6.83385,0.60285 -6.16991,0 -6.79873,-0.12144 -6.47245,-1.25 z"
       id="path6687"
       inkscape:connector-curvature="0" />
    <path
       style="fill:#f3f3f3;fill-opacity:1;fill-rule:evenodd"
       d="m 392.83002,668.13485 c -0.92667,-0.23918 -1.20375,-0.79107 -0.9446,-1.88143 0.2017,-0.84862 3.65191,-18.01617 7.66714,-38.1501 l 7.30041,-36.60714 7.75133,0 7.75133,0 0,38.57143 0,38.57143 -14.10714,-0.0829 c -7.75893,-0.0456 -14.69724,-0.23517 -15.41847,-0.42133 z"
       id="path6689"
       inkscape:connector-curvature="0" />
    <path
       style="fill:#f3f3f3;fill-opacity:1;fill-rule:evenodd"
       d="m 437.35563,607.21047 0,-15.71429 13.21429,0 13.21428,0 0,15.71429 0,15.71428 -13.21428,0 -13.21429,0 0,-15.71428 z"
       id="path6691"
       inkscape:connector-curvature="0" />
    <path
       style="fill:#f3f3f3;fill-opacity:1;fill-rule:evenodd"
       d="m 437.35563,654.44261 c 0,-7.80804 0.20089,-15.20089 0.44643,-16.42857 l 0.44643,-2.23214 12.76786,0 12.76785,0 0,16.42857 0,16.42857 -13.21428,0 -13.21429,0 0,-14.19643 z"
       id="path6693"
       inkscape:connector-curvature="0" />
    <path
       style="fill:#f3f3f3;fill-opacity:1;fill-rule:evenodd"
       d="m 479.49849,630.06761 0,-38.57143 14.28571,0 c 10.95365,0 14.28516,0.20826 14.28334,0.89286 -0.001,0.49107 -3.69774,17.70813 -8.21429,38.26014 -4.51655,20.55201 -8.2119,37.50737 -8.2119,37.67857 0,0.17121 -2.73215,0.31129 -6.07143,0.31129 l -6.07143,0 0,-38.57143 z"
       id="path6695"
       inkscape:connector-curvature="0" />
    <path
       style="fill:#f3f3f3;fill-opacity:1;fill-rule:evenodd"
       d="m 513.06992,667.60204 c 0,-0.82599 9.02351,-42.25631 10.43077,-47.89157 0.19621,-0.78572 0.49832,-2.07143 0.67135,-2.85715 0.49639,-2.25401 1.10096,-4.90431 1.38498,-6.07142 0.14341,-0.58929 0.28533,-1.3125 0.31539,-1.60715 0.0924,-0.906 1.24123,-0.59204 1.30682,0.35715 0.0339,0.49107 0.22672,1.53571 0.42842,2.32142 0.78629,3.06297 11.08713,48.1721 11.4403,50.09904 0.20602,1.1241 0.55143,2.88776 0.76756,3.91925 0.34539,1.6483 0.12291,1.92944 -1.83702,2.32143 -1.2265,0.2453 -7.33268,0.446 -13.56929,0.446 -9.43584,0 -11.33928,-0.17407 -11.33928,-1.037 z"
       id="path6697"
       inkscape:connector-curvature="0" />
    <path
       style="fill:#f3f3f3;fill-opacity:1;fill-rule:evenodd"
       d="m 561.64135,668.37789 c 0,-0.14364 -0.78621,-3.75971 -1.74712,-8.03572 -0.96091,-4.27601 -1.91057,-8.57813 -2.11035,-9.56027 -0.19977,-0.98215 -3.26338,-14.46269 -6.80802,-29.95677 -3.54463,-15.49408 -6.26503,-28.35122 -6.04533,-28.57143 0.63102,-0.63247 45.99847,-0.8794 45.97965,-0.25027 -0.009,0.3103 -1.33419,1.52847 -2.94423,2.70704 -6.63634,4.8579 -12.4905,14.16588 -14.94471,23.76174 -4.59854,17.98013 2.80222,35.88969 19.51296,47.22061 1.86607,1.2653 3.39286,2.44583 3.39286,2.62339 0,0.17756 -7.71429,0.32283 -17.14286,0.32283 -9.42857,0 -17.14285,-0.11752 -17.14285,-0.26115 z"
       id="path6699"
       inkscape:connector-curvature="0" />
    <path
       style="fill:#f3f3f3;fill-opacity:1;fill-rule:evenodd"
       d="m 634.89765,666.08555 c 7.54293,-4.53867 7.45348,-4.19193 2.39746,-9.29329 l -4.39707,-4.43651 -3.38109,1.69822 c -17.18239,8.63023 -36.88827,-1.73316 -40.85518,-21.48585 -1.6477,-8.20452 1.6201,-17.79276 8.24563,-24.19396 8.56011,-8.27027 20.78369,-10.18641 32.35023,-5.07114 4.59248,2.03102 4.41734,2.10412 8.90943,-3.71847 l 3.06209,-3.96903 -2.30517,-2.05967 -2.30517,-2.05967 11.7926,0 11.79261,0 -0.0105,38.57143 -0.0105,38.57143 -14.76452,0 -14.76452,0 4.24369,-2.55349 -2e-5,0 z"
       id="path6701"
       inkscape:connector-curvature="0" />
    <path
       style="fill:#f3f3f3;fill-opacity:1;fill-rule:evenodd"
       d="m 675.21278,604.71047 0,-13.21429 11.49206,0 11.49207,0 -1.67064,1.97888 c -10.10661,11.9713 -20.85411,24.44969 -21.05825,24.44969 -0.14039,0 -0.25524,-5.94643 -0.25524,-13.21428 z"
       id="path6703"
       inkscape:connector-curvature="0" />
    <path
       style="fill:#f3f3f3;fill-opacity:1;fill-rule:evenodd"
       d="m 675.21278,656.72104 0,-11.91799 11.96428,11.72408 c 6.58036,6.44825 12.09822,11.81135 12.26191,11.918 0.16369,0.10665 -5.22024,0.19391 -11.96429,0.19391 l -12.2619,0 0,-11.918 z"
       id="path6705"
       inkscape:connector-curvature="0" />
    <path
       style="fill:#f3f3f3;fill-opacity:1;fill-rule:evenodd"
       d="m 705.12126,650.55201 -20.23546,-18.08704 18.98618,-20.30582 18.98618,-20.30583 3.78562,-0.2159 3.78564,-0.21589 0,38.60875 0,38.60876 -2.53636,0 c -2.26288,0 -4.71814,-1.95014 -22.7718,-18.08703 z"
       id="path6707"
       inkscape:connector-curvature="0" />
    <rect
       style="fill:#ffffff;fill-opacity:1;fill-rule:evenodd;stroke:none;stroke-opacity:1"
       id="rect6713-6"
       width="14.992567"
       height="168.57143"
       x="730.72174"
       y="537.36224" />
    <rect
       style="fill:#ffffff;fill-opacity:1;fill-rule:evenodd;stroke:none;stroke-opacity:1"
       id="rect6713-6-0"
       width="755.00006"
       height="27.142855"
       x="-12.142864"
       y="678.79077" />
    <rect
       style="fill:#646464;fill-opacity:1"
       id="rect4325-5-7"
       width="733.61707"
       height="15.17857"
       x="-2.5337105"
       y="669.01398" />
    <rect
       style="fill:#ffffff;fill-opacity:1;fill-rule:evenodd;stroke:none;stroke-opacity:1"
       id="rect6713-6-0-8"
       width="762.14288"
       height="37.142853"
       x="-10.714293"
       y="542.71936" />
    <rect
       style="fill:#646464;fill-opacity:1;stroke:none"
       id="rect4325-9"
       width="729.64282"
       height="18.035713"
       x="1.1051463"
       y="573.38898" />
    <path
       style="fill:#f3f3f3;fill-opacity:1;fill-rule:evenodd;stroke:none;stroke-opacity:1"
       d="m 713.67604,660.88642 c -4.54336,-4.4295 -12.94068,-12.60985 -18.66071,-18.17856 -5.72003,-5.5687 -10.40005,-10.16011 -10.40005,-10.20312 0,-0.043 7.89509,-9.29804 17.54464,-20.56672 l 17.54464,-20.48851 3.59375,-3.2e-4 c 2.18016,-2e-4 3.59375,0.0326 3.59375,0.0835 0,0.11203 -0.44987,0.1621 -2.40447,0.26765 -1.12691,0.0609 -1.67863,0.12499 -1.75053,0.20352 -0.0578,0.0631 -3.29494,3.52938 -7.19375,7.70292 -3.89881,4.17354 -8.27101,8.85434 -9.71599,10.40178 -1.44498,1.54744 -3.156,3.37603 -3.80226,4.06353 -3.91284,4.16254 -16.72772,17.87764 -16.88886,18.07528 l -0.19337,0.23717 1.74735,1.55806 c 0.96105,0.85694 2.0142,1.79914 2.34034,2.09378 0.32614,0.29464 1.67367,1.5 2.99451,2.67857 1.32084,1.17857 3.3681,3.00784 4.54946,4.06505 1.18136,1.0572 2.9515,2.6398 3.93364,3.51689 0.98215,0.87708 2.46875,2.2052 3.30358,2.95138 13.33414,11.91823 18.02061,15.95675 20.61971,17.76886 0.8961,0.62477 2.10369,1.29604 2.33152,1.29604 0.084,0 0.12912,0.0937 0.12912,0.26785 l 0,0.26786 -2.47768,-0.004 -2.47767,-0.004 -8.26067,-8.05364 z"
       id="path6760"
       inkscape:connector-curvature="0" />
    <rect
       style="fill:#ffffff;fill-opacity:1;fill-rule:evenodd;stroke:none;stroke-opacity:1"
       id="rect6713"
       width="17.727154"
       height="168.57143"
       x="-16.42857"
       y="544.50507" />
  </g>
</svg>
